<svg width="40" height="40" viewBox="0 0 40 40" fill="none" xmlns="http://www.w3.org/2000/svg">
<path d="M20 40C31.0457 40 40 31.0457 40 20C40 8.95431 31.0457 0 20 0C8.95431 0 0 8.95431 0 20C0 31.0457 8.95431 40 20 40Z" fill="#262626"/>
<path d="M29.3415 23.1217C28.7395 25.0869 27.5331 26.8121 25.8938 28.052C24.4545 29.1352 22.7419 29.7959 20.948 29.9598C19.1542 30.1237 17.3501 29.7844 15.7384 28.98C14.1266 28.1756 12.771 26.9379 11.8236 25.4058C10.8762 23.8737 10.3746 22.1079 10.375 20.3066C10.3686 18.2041 11.0521 16.1575 12.3207 14.4808C13.5605 12.8415 15.2858 11.635 17.251 11.033C17.3806 10.9931 17.5185 10.9893 17.65 11.022C17.7816 11.0546 17.9017 11.1225 17.9975 11.2183C18.0934 11.3142 18.1613 11.4343 18.1939 11.5658C18.2266 11.6974 18.2227 11.8353 18.1829 11.9648C17.7531 13.3863 17.7171 14.8977 18.0786 16.338C18.4401 17.7783 19.1856 19.0935 20.2356 20.1436C21.2857 21.1936 22.6009 21.9391 24.0412 22.3006C25.4815 22.6621 26.9929 22.6261 28.4144 22.1964C28.5439 22.1565 28.6818 22.1527 28.8134 22.1853C28.9449 22.218 29.065 22.2859 29.1609 22.3817C29.2567 22.4775 29.3246 22.5977 29.3573 22.7292C29.3899 22.8607 29.3861 22.9987 29.3462 23.1282L29.3415 23.1217Z" fill="white"/>
</svg>
