<svg width="1680" height="488" viewBox="0 0 1680 488" fill="none" xmlns="http://www.w3.org/2000/svg">
<path d="M-1.5 239L0 485V488H1680V0C1607.83 137.5 1367.9 377.8 985.5 239C603.1 100.2 168.167 181.167 -1.5 239Z" fill="url(#paint0_linear_1_100)"/>
<path d="M189.843 332.425L197.963 316.29H203.948L195.653 332.425H189.843ZM189.843 335.505V332.425L191.663 330.85H209.653V335.505H189.843ZM201.498 341V325.705H206.888V341H201.498ZM222.126 341.385C220.143 341.385 218.346 340.848 216.736 339.775C215.126 338.702 213.854 337.208 212.921 335.295C212.011 333.358 211.556 331.13 211.556 328.61C211.556 326.067 212.011 323.85 212.921 321.96C213.831 320.047 215.079 318.565 216.666 317.515C218.253 316.442 220.049 315.905 222.056 315.905C224.086 315.905 225.894 316.442 227.481 317.515C229.068 318.565 230.316 320.047 231.226 321.96C232.159 323.873 232.626 326.102 232.626 328.645C232.626 331.188 232.159 333.417 231.226 335.33C230.316 337.243 229.068 338.737 227.481 339.81C225.918 340.86 224.133 341.385 222.126 341.385ZM222.091 336.52C223.118 336.52 224.004 336.228 224.751 335.645C225.498 335.038 226.069 334.152 226.466 332.985C226.886 331.795 227.096 330.348 227.096 328.645C227.096 326.918 226.886 325.472 226.466 324.305C226.069 323.138 225.498 322.263 224.751 321.68C224.004 321.073 223.106 320.77 222.056 320.77C221.053 320.77 220.166 321.062 219.396 321.645C218.649 322.228 218.078 323.103 217.681 324.27C217.284 325.437 217.086 326.883 217.086 328.61C217.086 330.337 217.284 331.783 217.681 332.95C218.078 334.117 218.649 335.003 219.396 335.61C220.166 336.217 221.064 336.52 222.091 336.52ZM245.437 341.385C243.453 341.385 241.657 340.848 240.047 339.775C238.437 338.702 237.165 337.208 236.232 335.295C235.322 333.358 234.867 331.13 234.867 328.61C234.867 326.067 235.322 323.85 236.232 321.96C237.142 320.047 238.39 318.565 239.977 317.515C241.563 316.442 243.36 315.905 245.367 315.905C247.397 315.905 249.205 316.442 250.792 317.515C252.378 318.565 253.627 320.047 254.537 321.96C255.47 323.873 255.937 326.102 255.937 328.645C255.937 331.188 255.47 333.417 254.537 335.33C253.627 337.243 252.378 338.737 250.792 339.81C249.228 340.86 247.443 341.385 245.437 341.385ZM245.402 336.52C246.428 336.52 247.315 336.228 248.062 335.645C248.808 335.038 249.38 334.152 249.777 332.985C250.197 331.795 250.407 330.348 250.407 328.645C250.407 326.918 250.197 325.472 249.777 324.305C249.38 323.138 248.808 322.263 248.062 321.68C247.315 321.073 246.417 320.77 245.367 320.77C244.363 320.77 243.477 321.062 242.707 321.645C241.96 322.228 241.388 323.103 240.992 324.27C240.595 325.437 240.397 326.883 240.397 328.61C240.397 330.337 240.595 331.783 240.992 332.95C241.388 334.117 241.96 335.003 242.707 335.61C243.477 336.217 244.375 336.52 245.402 336.52ZM258.947 341V323.99H264.302V341H258.947ZM269.832 341V331.06C269.832 330.197 269.564 329.532 269.027 329.065C268.514 328.575 267.872 328.33 267.102 328.33C266.565 328.33 266.087 328.447 265.667 328.68C265.247 328.89 264.909 329.193 264.652 329.59C264.419 329.987 264.302 330.477 264.302 331.06L262.237 330.15C262.237 328.797 262.529 327.642 263.112 326.685C263.695 325.705 264.489 324.958 265.492 324.445C266.495 323.908 267.627 323.64 268.887 323.64C270.077 323.64 271.139 323.908 272.072 324.445C273.029 324.982 273.787 325.728 274.347 326.685C274.907 327.642 275.187 328.785 275.187 330.115V341H269.832ZM280.717 341V331.06C280.717 330.197 280.449 329.532 279.912 329.065C279.399 328.575 278.757 328.33 277.987 328.33C277.45 328.33 276.972 328.447 276.552 328.68C276.132 328.89 275.794 329.193 275.537 329.59C275.304 329.987 275.187 330.477 275.187 331.06L272.107 330.64C272.154 329.193 272.492 327.957 273.122 326.93C273.775 325.88 274.627 325.075 275.677 324.515C276.75 323.932 277.952 323.64 279.282 323.64C280.589 323.64 281.744 323.92 282.747 324.48C283.774 325.017 284.579 325.798 285.162 326.825C285.769 327.828 286.072 329.042 286.072 330.465V341H280.717ZM289.504 341V323.99H294.859V341H289.504ZM300.389 341V331.06C300.389 330.197 300.12 329.532 299.584 329.065C299.07 328.575 298.429 328.33 297.659 328.33C297.122 328.33 296.644 328.447 296.224 328.68C295.804 328.89 295.465 329.193 295.209 329.59C294.975 329.987 294.859 330.477 294.859 331.06L292.794 330.15C292.794 328.797 293.085 327.642 293.669 326.685C294.252 325.705 295.045 324.958 296.049 324.445C297.052 323.908 298.184 323.64 299.444 323.64C300.634 323.64 301.695 323.908 302.629 324.445C303.585 324.982 304.344 325.728 304.904 326.685C305.464 327.642 305.744 328.785 305.744 330.115V341H300.389ZM311.274 341V331.06C311.274 330.197 311.005 329.532 310.469 329.065C309.955 328.575 309.314 328.33 308.544 328.33C308.007 328.33 307.529 328.447 307.109 328.68C306.689 328.89 306.35 329.193 306.094 329.59C305.86 329.987 305.744 330.477 305.744 331.06L302.664 330.64C302.71 329.193 303.049 327.957 303.679 326.93C304.332 325.88 305.184 325.075 306.234 324.515C307.307 323.932 308.509 323.64 309.839 323.64C311.145 323.64 312.3 323.92 313.304 324.48C314.33 325.017 315.135 325.798 315.719 326.825C316.325 327.828 316.629 329.042 316.629 330.465V341H311.274ZM319.885 331.515V327.07H336.16V331.515H319.885ZM325.765 320.735H330.315V337.78H325.765V320.735Z" fill="white"/>
<path d="M206.351 373.6V372.224H209.439C210.26 372.224 210.98 372.048 211.599 371.696C212.218 371.333 212.698 370.837 213.039 370.208C213.391 369.579 213.567 368.853 213.567 368.032C213.567 367.221 213.391 366.501 213.039 365.872C212.687 365.243 212.202 364.752 211.583 364.4C210.964 364.048 210.25 363.872 209.439 363.872H206.367V362.496H209.471C210.282 362.496 211.028 362.635 211.711 362.912C212.404 363.189 213.002 363.579 213.503 364.08C214.015 364.581 214.41 365.168 214.687 365.84C214.975 366.512 215.119 367.248 215.119 368.048C215.119 368.837 214.975 369.573 214.687 370.256C214.41 370.928 214.02 371.515 213.519 372.016C213.018 372.517 212.42 372.907 211.727 373.184C211.044 373.461 210.303 373.6 209.503 373.6H206.351ZM205.359 373.6V362.496H206.863V373.6H205.359ZM220.179 373.76C219.485 373.76 218.856 373.589 218.291 373.248C217.725 372.896 217.277 372.421 216.947 371.824C216.627 371.227 216.467 370.555 216.467 369.808C216.467 369.061 216.627 368.389 216.947 367.792C217.277 367.195 217.72 366.72 218.275 366.368C218.84 366.016 219.475 365.84 220.179 365.84C220.755 365.84 221.267 365.963 221.715 366.208C222.173 366.443 222.541 366.773 222.819 367.2C223.096 367.616 223.251 368.101 223.283 368.656V370.944C223.251 371.488 223.096 371.973 222.819 372.4C222.552 372.827 222.189 373.163 221.731 373.408C221.283 373.643 220.765 373.76 220.179 373.76ZM220.419 372.4C221.133 372.4 221.709 372.16 222.147 371.68C222.584 371.189 222.803 370.565 222.803 369.808C222.803 369.285 222.701 368.832 222.499 368.448C222.307 368.053 222.029 367.749 221.667 367.536C221.304 367.312 220.883 367.2 220.403 367.2C219.923 367.2 219.496 367.312 219.123 367.536C218.76 367.76 218.472 368.069 218.259 368.464C218.056 368.848 217.955 369.291 217.955 369.792C217.955 370.304 218.056 370.757 218.259 371.152C218.472 371.536 218.765 371.84 219.139 372.064C219.512 372.288 219.939 372.4 220.419 372.4ZM222.707 373.6V371.552L222.979 369.696L222.707 367.856V366H224.163V373.6H222.707ZM227.396 373.6V362.816H228.836V373.6H227.396ZM225.524 367.312V366H230.708V367.312H225.524ZM235.116 373.76C234.423 373.76 233.793 373.589 233.228 373.248C232.663 372.896 232.215 372.421 231.884 371.824C231.564 371.227 231.404 370.555 231.404 369.808C231.404 369.061 231.564 368.389 231.884 367.792C232.215 367.195 232.657 366.72 233.212 366.368C233.777 366.016 234.412 365.84 235.116 365.84C235.692 365.84 236.204 365.963 236.652 366.208C237.111 366.443 237.479 366.773 237.756 367.2C238.033 367.616 238.188 368.101 238.22 368.656V370.944C238.188 371.488 238.033 371.973 237.756 372.4C237.489 372.827 237.127 373.163 236.668 373.408C236.22 373.643 235.703 373.76 235.116 373.76ZM235.356 372.4C236.071 372.4 236.647 372.16 237.084 371.68C237.521 371.189 237.74 370.565 237.74 369.808C237.74 369.285 237.639 368.832 237.436 368.448C237.244 368.053 236.967 367.749 236.604 367.536C236.241 367.312 235.82 367.2 235.34 367.2C234.86 367.2 234.433 367.312 234.06 367.536C233.697 367.76 233.409 368.069 233.196 368.464C232.993 368.848 232.892 369.291 232.892 369.792C232.892 370.304 232.993 370.757 233.196 371.152C233.409 371.536 233.703 371.84 234.076 372.064C234.449 372.288 234.876 372.4 235.356 372.4ZM237.644 373.6V371.552L237.916 369.696L237.644 367.856V366H239.1V373.6H237.644ZM248.525 373.76C247.949 373.76 247.426 373.643 246.957 373.408C246.498 373.163 246.13 372.827 245.853 372.4C245.575 371.973 245.421 371.488 245.389 370.944V368.656C245.421 368.101 245.575 367.616 245.853 367.2C246.141 366.773 246.514 366.443 246.973 366.208C247.442 365.963 247.959 365.84 248.525 365.84C249.218 365.84 249.842 366.016 250.397 366.368C250.962 366.72 251.405 367.195 251.725 367.792C252.045 368.389 252.205 369.061 252.205 369.808C252.205 370.555 252.045 371.227 251.725 371.824C251.405 372.421 250.962 372.896 250.397 373.248C249.842 373.589 249.218 373.76 248.525 373.76ZM244.525 376.784V366H245.965V368L245.693 369.84L245.965 371.696V376.784H244.525ZM248.285 372.4C248.765 372.4 249.186 372.288 249.549 372.064C249.911 371.84 250.199 371.536 250.413 371.152C250.626 370.757 250.733 370.304 250.733 369.792C250.733 369.291 250.626 368.843 250.413 368.448C250.199 368.053 249.911 367.749 249.549 367.536C249.186 367.312 248.77 367.2 248.301 367.2C247.821 367.2 247.399 367.312 247.037 367.536C246.674 367.749 246.391 368.053 246.189 368.448C245.986 368.843 245.885 369.296 245.885 369.808C245.885 370.309 245.981 370.757 246.173 371.152C246.375 371.536 246.658 371.84 247.021 372.064C247.394 372.288 247.815 372.4 248.285 372.4ZM257.309 373.76C256.563 373.76 255.891 373.584 255.293 373.232C254.696 372.88 254.221 372.405 253.869 371.808C253.517 371.2 253.341 370.523 253.341 369.776C253.341 369.04 253.517 368.379 253.869 367.792C254.221 367.195 254.696 366.72 255.293 366.368C255.891 366.016 256.563 365.84 257.309 365.84C258.045 365.84 258.712 366.016 259.309 366.368C259.917 366.709 260.397 367.179 260.749 367.776C261.101 368.373 261.277 369.04 261.277 369.776C261.277 370.523 261.101 371.2 260.749 371.808C260.397 372.405 259.917 372.88 259.309 373.232C258.712 373.584 258.045 373.76 257.309 373.76ZM257.309 372.368C257.789 372.368 258.216 372.256 258.589 372.032C258.963 371.808 259.256 371.504 259.469 371.12C259.683 370.725 259.789 370.277 259.789 369.776C259.789 369.285 259.677 368.848 259.453 368.464C259.24 368.08 258.947 367.781 258.573 367.568C258.211 367.344 257.789 367.232 257.309 367.232C256.829 367.232 256.403 367.344 256.029 367.568C255.656 367.781 255.363 368.08 255.149 368.464C254.936 368.848 254.829 369.285 254.829 369.776C254.829 370.277 254.936 370.725 255.149 371.12C255.363 371.504 255.656 371.808 256.029 372.032C256.403 372.256 256.829 372.368 257.309 372.368ZM262.916 373.6V366H264.356V373.6H262.916ZM263.636 364.48C263.369 364.48 263.15 364.395 262.98 364.224C262.809 364.043 262.724 363.819 262.724 363.552C262.724 363.296 262.809 363.083 262.98 362.912C263.15 362.731 263.369 362.64 263.636 362.64C263.902 362.64 264.121 362.731 264.292 362.912C264.462 363.083 264.548 363.296 264.548 363.552C264.548 363.819 264.462 364.043 264.292 364.224C264.121 364.395 263.902 364.48 263.636 364.48ZM271.854 373.6V369.168C271.854 368.592 271.673 368.117 271.31 367.744C270.947 367.371 270.478 367.184 269.902 367.184C269.518 367.184 269.177 367.269 268.878 367.44C268.579 367.611 268.345 367.845 268.174 368.144C268.003 368.443 267.918 368.784 267.918 369.168L267.326 368.832C267.326 368.256 267.454 367.744 267.71 367.296C267.966 366.848 268.323 366.496 268.782 366.24C269.241 365.973 269.758 365.84 270.334 365.84C270.91 365.84 271.417 365.984 271.854 366.272C272.302 366.56 272.654 366.939 272.91 367.408C273.166 367.867 273.294 368.357 273.294 368.88V373.6H271.854ZM266.478 373.6V366H267.918V373.6H266.478ZM276.318 373.6V362.816H277.758V373.6H276.318ZM274.446 367.312V366H279.63V367.312H274.446ZM283.3 373.76C282.873 373.76 282.468 373.707 282.084 373.6C281.711 373.483 281.364 373.323 281.044 373.12C280.724 372.907 280.447 372.656 280.212 372.368L281.14 371.44C281.417 371.781 281.737 372.037 282.1 372.208C282.463 372.368 282.868 372.448 283.316 372.448C283.764 372.448 284.111 372.373 284.356 372.224C284.601 372.064 284.724 371.845 284.724 371.568C284.724 371.291 284.623 371.077 284.42 370.928C284.228 370.768 283.977 370.64 283.668 370.544C283.359 370.437 283.028 370.336 282.676 370.24C282.335 370.133 282.009 370 281.7 369.84C281.391 369.68 281.135 369.461 280.932 369.184C280.74 368.907 280.644 368.539 280.644 368.08C280.644 367.621 280.756 367.227 280.98 366.896C281.204 366.555 281.513 366.293 281.908 366.112C282.313 365.931 282.799 365.84 283.364 365.84C283.961 365.84 284.489 365.947 284.948 366.16C285.417 366.363 285.801 366.672 286.1 367.088L285.172 368.016C284.959 367.739 284.692 367.525 284.372 367.376C284.063 367.227 283.711 367.152 283.316 367.152C282.9 367.152 282.58 367.227 282.356 367.376C282.143 367.515 282.036 367.712 282.036 367.968C282.036 368.224 282.132 368.421 282.324 368.56C282.516 368.699 282.767 368.816 283.076 368.912C283.396 369.008 283.727 369.109 284.068 369.216C284.409 369.312 284.735 369.445 285.044 369.616C285.353 369.787 285.604 370.016 285.796 370.304C285.999 370.592 286.1 370.971 286.1 371.44C286.1 372.155 285.844 372.72 285.332 373.136C284.831 373.552 284.153 373.76 283.3 373.76ZM294.112 373.76C293.483 373.76 292.918 373.621 292.416 373.344C291.926 373.056 291.542 372.661 291.264 372.16C290.987 371.659 290.848 371.077 290.848 370.416V366H292.288V370.352C292.288 370.768 292.358 371.131 292.496 371.44C292.646 371.739 292.859 371.968 293.136 372.128C293.414 372.288 293.739 372.368 294.112 372.368C294.678 372.368 295.12 372.192 295.44 371.84C295.76 371.477 295.92 370.981 295.92 370.352V366H297.36V370.416C297.36 371.077 297.222 371.659 296.944 372.16C296.667 372.661 296.283 373.056 295.792 373.344C295.312 373.621 294.752 373.76 294.112 373.76ZM301.706 373.76C301.28 373.76 300.874 373.707 300.49 373.6C300.117 373.483 299.77 373.323 299.45 373.12C299.13 372.907 298.853 372.656 298.618 372.368L299.546 371.44C299.824 371.781 300.144 372.037 300.506 372.208C300.869 372.368 301.274 372.448 301.722 372.448C302.17 372.448 302.517 372.373 302.762 372.224C303.008 372.064 303.13 371.845 303.13 371.568C303.13 371.291 303.029 371.077 302.826 370.928C302.634 370.768 302.384 370.64 302.074 370.544C301.765 370.437 301.434 370.336 301.082 370.24C300.741 370.133 300.416 370 300.106 369.84C299.797 369.68 299.541 369.461 299.338 369.184C299.146 368.907 299.05 368.539 299.05 368.08C299.05 367.621 299.162 367.227 299.386 366.896C299.61 366.555 299.92 366.293 300.314 366.112C300.72 365.931 301.205 365.84 301.77 365.84C302.368 365.84 302.896 365.947 303.354 366.16C303.824 366.363 304.208 366.672 304.506 367.088L303.578 368.016C303.365 367.739 303.098 367.525 302.778 367.376C302.469 367.227 302.117 367.152 301.722 367.152C301.306 367.152 300.986 367.227 300.762 367.376C300.549 367.515 300.442 367.712 300.442 367.968C300.442 368.224 300.538 368.421 300.73 368.56C300.922 368.699 301.173 368.816 301.482 368.912C301.802 369.008 302.133 369.109 302.474 369.216C302.816 369.312 303.141 369.445 303.45 369.616C303.76 369.787 304.01 370.016 304.202 370.304C304.405 370.592 304.506 370.971 304.506 371.44C304.506 372.155 304.25 372.72 303.738 373.136C303.237 373.552 302.56 373.76 301.706 373.76ZM309.639 373.76C308.881 373.76 308.199 373.589 307.591 373.248C306.983 372.896 306.503 372.421 306.151 371.824C305.799 371.227 305.623 370.549 305.623 369.792C305.623 369.045 305.793 368.373 306.135 367.776C306.487 367.179 306.956 366.709 307.543 366.368C308.14 366.016 308.807 365.84 309.543 365.84C310.247 365.84 310.865 366 311.399 366.32C311.943 366.64 312.364 367.083 312.663 367.648C312.972 368.213 313.127 368.853 313.127 369.568C313.127 369.675 313.121 369.792 313.111 369.92C313.1 370.037 313.079 370.176 313.047 370.336H306.631V369.136H312.279L311.751 369.6C311.751 369.088 311.66 368.656 311.479 368.304C311.297 367.941 311.041 367.664 310.711 367.472C310.38 367.269 309.98 367.168 309.511 367.168C309.02 367.168 308.588 367.275 308.215 367.488C307.841 367.701 307.553 368 307.351 368.384C307.148 368.768 307.047 369.221 307.047 369.744C307.047 370.277 307.153 370.747 307.367 371.152C307.58 371.547 307.884 371.856 308.279 372.08C308.673 372.293 309.127 372.4 309.639 372.4C310.065 372.4 310.455 372.325 310.807 372.176C311.169 372.027 311.479 371.803 311.735 371.504L312.663 372.448C312.3 372.875 311.852 373.2 311.319 373.424C310.796 373.648 310.236 373.76 309.639 373.76ZM317.913 373.76C317.209 373.76 316.579 373.589 316.025 373.248C315.47 372.896 315.027 372.421 314.697 371.824C314.377 371.227 314.217 370.555 314.217 369.808C314.217 369.061 314.377 368.389 314.697 367.792C315.027 367.195 315.47 366.72 316.025 366.368C316.579 366.016 317.209 365.84 317.913 365.84C318.478 365.84 318.99 365.963 319.449 366.208C319.907 366.443 320.275 366.773 320.553 367.2C320.841 367.616 321.001 368.101 321.033 368.656V370.944C321.001 371.488 320.846 371.973 320.569 372.4C320.291 372.827 319.923 373.163 319.465 373.408C319.006 373.643 318.489 373.76 317.913 373.76ZM318.153 372.4C318.633 372.4 319.049 372.288 319.401 372.064C319.763 371.84 320.046 371.536 320.249 371.152C320.451 370.757 320.553 370.309 320.553 369.808C320.553 369.285 320.446 368.832 320.233 368.448C320.03 368.064 319.747 367.76 319.385 367.536C319.033 367.312 318.617 367.2 318.137 367.2C317.657 367.2 317.235 367.312 316.873 367.536C316.51 367.76 316.222 368.069 316.009 368.464C315.806 368.848 315.705 369.291 315.705 369.792C315.705 370.304 315.806 370.757 316.009 371.152C316.222 371.536 316.51 371.84 316.873 372.064C317.246 372.288 317.673 372.4 318.153 372.4ZM321.913 373.6H320.457V371.552L320.729 369.696L320.457 367.856V362.176H321.913V373.6ZM221.542 394.6V385.864C221.542 385.299 221.665 384.808 221.91 384.392C222.156 383.965 222.492 383.629 222.918 383.384C223.356 383.139 223.862 383.016 224.438 383.016C224.876 383.016 225.254 383.091 225.574 383.24C225.894 383.389 226.188 383.608 226.454 383.896L225.51 384.824C225.372 384.675 225.217 384.563 225.046 384.488C224.876 384.403 224.668 384.36 224.422 384.36C223.964 384.36 223.606 384.493 223.35 384.76C223.105 385.027 222.982 385.395 222.982 385.864V394.6H221.542ZM219.67 388.312V387H225.398V388.312H219.67ZM229.88 394.76C229.133 394.76 228.461 394.584 227.864 394.232C227.266 393.88 226.792 393.405 226.44 392.808C226.088 392.2 225.912 391.523 225.912 390.776C225.912 390.04 226.088 389.379 226.44 388.792C226.792 388.195 227.266 387.72 227.864 387.368C228.461 387.016 229.133 386.84 229.88 386.84C230.616 386.84 231.282 387.016 231.88 387.368C232.488 387.709 232.968 388.179 233.32 388.776C233.672 389.373 233.848 390.04 233.848 390.776C233.848 391.523 233.672 392.2 233.32 392.808C232.968 393.405 232.488 393.88 231.88 394.232C231.282 394.584 230.616 394.76 229.88 394.76ZM229.88 393.368C230.36 393.368 230.786 393.256 231.16 393.032C231.533 392.808 231.826 392.504 232.04 392.12C232.253 391.725 232.36 391.277 232.36 390.776C232.36 390.285 232.248 389.848 232.024 389.464C231.81 389.08 231.517 388.781 231.144 388.568C230.781 388.344 230.36 388.232 229.88 388.232C229.4 388.232 228.973 388.344 228.6 388.568C228.226 388.781 227.933 389.08 227.72 389.464C227.506 389.848 227.4 390.285 227.4 390.776C227.4 391.277 227.506 391.725 227.72 392.12C227.933 392.504 228.226 392.808 228.6 393.032C228.973 393.256 229.4 393.368 229.88 393.368ZM235.47 394.6V387H236.91V394.6H235.47ZM236.91 390.264L236.366 390.024C236.366 389.053 236.59 388.28 237.038 387.704C237.486 387.128 238.131 386.84 238.974 386.84C239.358 386.84 239.705 386.909 240.014 387.048C240.323 387.176 240.611 387.395 240.878 387.704L239.934 388.68C239.774 388.509 239.598 388.387 239.406 388.312C239.214 388.237 238.99 388.2 238.734 388.2C238.201 388.2 237.763 388.371 237.422 388.712C237.081 389.053 236.91 389.571 236.91 390.264ZM248.733 394.76C248.04 394.76 247.411 394.589 246.845 394.248C246.28 393.896 245.832 393.421 245.501 392.824C245.181 392.227 245.021 391.555 245.021 390.808C245.021 390.061 245.181 389.389 245.501 388.792C245.832 388.195 246.275 387.72 246.829 387.368C247.395 387.016 248.029 386.84 248.733 386.84C249.309 386.84 249.821 386.963 250.269 387.208C250.728 387.443 251.096 387.773 251.373 388.2C251.651 388.616 251.805 389.101 251.837 389.656V391.944C251.805 392.488 251.651 392.973 251.373 393.4C251.107 393.827 250.744 394.163 250.285 394.408C249.837 394.643 249.32 394.76 248.733 394.76ZM248.973 393.4C249.688 393.4 250.264 393.16 250.701 392.68C251.139 392.189 251.357 391.565 251.357 390.808C251.357 390.285 251.256 389.832 251.053 389.448C250.861 389.053 250.584 388.749 250.221 388.536C249.859 388.312 249.437 388.2 248.957 388.2C248.477 388.2 248.051 388.312 247.677 388.536C247.315 388.76 247.027 389.069 246.813 389.464C246.611 389.848 246.509 390.291 246.509 390.792C246.509 391.304 246.611 391.757 246.813 392.152C247.027 392.536 247.32 392.84 247.693 393.064C248.067 393.288 248.493 393.4 248.973 393.4ZM251.261 394.6V392.552L251.533 390.696L251.261 388.856V387H252.717V394.6H251.261ZM260.19 394.6V390.168C260.19 389.592 260.008 389.117 259.646 388.744C259.283 388.371 258.814 388.184 258.238 388.184C257.854 388.184 257.512 388.269 257.214 388.44C256.915 388.611 256.68 388.845 256.51 389.144C256.339 389.443 256.254 389.784 256.254 390.168L255.662 389.832C255.662 389.256 255.79 388.744 256.046 388.296C256.302 387.848 256.659 387.496 257.118 387.24C257.576 386.973 258.094 386.84 258.67 386.84C259.246 386.84 259.752 386.984 260.19 387.272C260.638 387.56 260.99 387.939 261.246 388.408C261.502 388.867 261.63 389.357 261.63 389.88V394.6H260.19ZM254.814 394.6V387H256.254V394.6H254.814ZM266.811 394.76C266.118 394.76 265.489 394.589 264.923 394.248C264.358 393.896 263.91 393.421 263.579 392.824C263.259 392.227 263.099 391.555 263.099 390.808C263.099 390.061 263.259 389.389 263.579 388.792C263.91 388.195 264.353 387.72 264.907 387.368C265.473 387.016 266.107 386.84 266.811 386.84C267.387 386.84 267.899 386.963 268.347 387.208C268.806 387.443 269.174 387.773 269.451 388.2C269.729 388.616 269.883 389.101 269.915 389.656V391.944C269.883 392.488 269.729 392.973 269.451 393.4C269.185 393.827 268.822 394.163 268.363 394.408C267.915 394.643 267.398 394.76 266.811 394.76ZM267.051 393.4C267.766 393.4 268.342 393.16 268.779 392.68C269.217 392.189 269.435 391.565 269.435 390.808C269.435 390.285 269.334 389.832 269.131 389.448C268.939 389.053 268.662 388.749 268.299 388.536C267.937 388.312 267.515 388.2 267.035 388.2C266.555 388.2 266.129 388.312 265.755 388.536C265.393 388.76 265.105 389.069 264.891 389.464C264.689 389.848 264.587 390.291 264.587 390.792C264.587 391.304 264.689 391.757 264.891 392.152C265.105 392.536 265.398 392.84 265.771 393.064C266.145 393.288 266.571 393.4 267.051 393.4ZM269.339 394.6V392.552L269.611 390.696L269.339 388.856V387H270.795V394.6H269.339ZM272.892 394.6V383.176H274.332V394.6H272.892ZM278.935 394.664L275.639 387H277.239L279.687 393H279.175L281.751 387H283.351L279.799 394.664H278.935ZM276.759 397.784L278.999 393.192L279.799 394.664L278.359 397.784H276.759ZM285.701 394.6V383.816H287.141V394.6H285.701ZM283.829 388.312V387H289.013V388.312H283.829ZM290.439 394.6V387H291.879V394.6H290.439ZM291.159 385.48C290.893 385.48 290.674 385.395 290.503 385.224C290.333 385.043 290.247 384.819 290.247 384.552C290.247 384.296 290.333 384.083 290.503 383.912C290.674 383.731 290.893 383.64 291.159 383.64C291.426 383.64 291.645 383.731 291.815 383.912C291.986 384.083 292.071 384.296 292.071 384.552C292.071 384.819 291.986 385.043 291.815 385.224C291.645 385.395 291.426 385.48 291.159 385.48ZM297.473 394.76C296.727 394.76 296.049 394.584 295.441 394.232C294.844 393.88 294.369 393.405 294.017 392.808C293.676 392.2 293.505 391.528 293.505 390.792C293.505 390.045 293.676 389.373 294.017 388.776C294.369 388.179 294.844 387.709 295.441 387.368C296.049 387.016 296.727 386.84 297.473 386.84C298.06 386.84 298.604 386.952 299.105 387.176C299.607 387.389 300.039 387.704 300.401 388.12L299.441 389.08C299.207 388.803 298.919 388.595 298.577 388.456C298.247 388.307 297.879 388.232 297.473 388.232C296.993 388.232 296.567 388.344 296.193 388.568C295.82 388.781 295.527 389.08 295.313 389.464C295.1 389.848 294.993 390.291 294.993 390.792C294.993 391.293 295.1 391.736 295.313 392.12C295.527 392.504 295.82 392.808 296.193 393.032C296.567 393.256 296.993 393.368 297.473 393.368C297.879 393.368 298.247 393.299 298.577 393.16C298.919 393.011 299.212 392.797 299.457 392.52L300.401 393.48C300.049 393.885 299.617 394.2 299.105 394.424C298.604 394.648 298.06 394.76 297.473 394.76ZM304.245 394.76C303.819 394.76 303.413 394.707 303.029 394.6C302.656 394.483 302.309 394.323 301.989 394.12C301.669 393.907 301.392 393.656 301.157 393.368L302.085 392.44C302.363 392.781 302.683 393.037 303.045 393.208C303.408 393.368 303.813 393.448 304.261 393.448C304.709 393.448 305.056 393.373 305.301 393.224C305.547 393.064 305.669 392.845 305.669 392.568C305.669 392.291 305.568 392.077 305.365 391.928C305.173 391.768 304.923 391.64 304.613 391.544C304.304 391.437 303.973 391.336 303.621 391.24C303.28 391.133 302.955 391 302.645 390.84C302.336 390.68 302.08 390.461 301.877 390.184C301.685 389.907 301.589 389.539 301.589 389.08C301.589 388.621 301.701 388.227 301.925 387.896C302.149 387.555 302.459 387.293 302.853 387.112C303.259 386.931 303.744 386.84 304.309 386.84C304.907 386.84 305.435 386.947 305.893 387.16C306.363 387.363 306.747 387.672 307.045 388.088L306.117 389.016C305.904 388.739 305.637 388.525 305.317 388.376C305.008 388.227 304.656 388.152 304.261 388.152C303.845 388.152 303.525 388.227 303.301 388.376C303.088 388.515 302.981 388.712 302.981 388.968C302.981 389.224 303.077 389.421 303.269 389.56C303.461 389.699 303.712 389.816 304.021 389.912C304.341 390.008 304.672 390.109 305.013 390.216C305.355 390.312 305.68 390.445 305.989 390.616C306.299 390.787 306.549 391.016 306.741 391.304C306.944 391.592 307.045 391.971 307.045 392.44C307.045 393.155 306.789 393.72 306.277 394.136C305.776 394.552 305.099 394.76 304.245 394.76Z" fill="white" fill-opacity="0.87"/>
<path d="M454.331 341.385C452.417 341.385 450.749 341.058 449.326 340.405C447.902 339.728 446.607 338.713 445.441 337.36L448.906 333.825C449.676 334.758 450.527 335.493 451.461 336.03C452.394 336.543 453.467 336.8 454.681 336.8C455.824 336.8 456.711 336.59 457.341 336.17C457.971 335.727 458.286 335.108 458.286 334.315C458.286 333.638 458.076 333.09 457.656 332.67C457.259 332.25 456.722 331.888 456.046 331.585C455.369 331.282 454.622 330.99 453.806 330.71C452.989 330.43 452.172 330.115 451.356 329.765C450.562 329.392 449.827 328.937 449.151 328.4C448.474 327.84 447.926 327.152 447.506 326.335C447.086 325.495 446.876 324.445 446.876 323.185C446.876 321.668 447.237 320.362 447.961 319.265C448.707 318.168 449.722 317.34 451.006 316.78C452.289 316.197 453.759 315.905 455.416 315.905C457.026 315.905 458.531 316.208 459.931 316.815C461.331 317.422 462.474 318.25 463.361 319.3L459.896 322.835C459.172 322.065 458.437 321.482 457.691 321.085C456.967 320.665 456.174 320.455 455.311 320.455C454.307 320.455 453.526 320.642 452.966 321.015C452.406 321.388 452.126 321.937 452.126 322.66C452.126 323.29 452.336 323.803 452.756 324.2C453.176 324.573 453.724 324.9 454.401 325.18C455.101 325.46 455.847 325.74 456.641 326.02C457.457 326.3 458.274 326.627 459.091 327C459.907 327.373 460.654 327.852 461.331 328.435C462.031 328.995 462.591 329.718 463.011 330.605C463.431 331.468 463.641 332.542 463.641 333.825C463.641 336.182 462.812 338.037 461.156 339.39C459.522 340.72 457.247 341.385 454.331 341.385ZM453.176 338.655H457.026V344.535H453.176V338.655ZM457.026 318.425H453.176V312.755H457.026V318.425ZM474.125 341.385C472.421 341.385 470.858 341.093 469.435 340.51C468.011 339.903 466.81 339.04 465.83 337.92L469.365 334.385C469.808 335.038 470.45 335.575 471.29 335.995C472.153 336.392 473.063 336.59 474.02 336.59C474.883 336.59 475.63 336.438 476.26 336.135C476.89 335.832 477.38 335.4 477.73 334.84C478.103 334.28 478.29 333.615 478.29 332.845C478.29 332.075 478.103 331.422 477.73 330.885C477.38 330.325 476.855 329.893 476.155 329.59C475.478 329.287 474.661 329.135 473.705 329.135C473.261 329.135 472.795 329.17 472.305 329.24C471.838 329.287 471.441 329.368 471.115 329.485L473.53 326.44C474.183 326.253 474.801 326.102 475.385 325.985C475.991 325.845 476.551 325.775 477.065 325.775C478.325 325.775 479.456 326.078 480.46 326.685C481.463 327.268 482.256 328.108 482.84 329.205C483.446 330.278 483.75 331.562 483.75 333.055C483.75 334.688 483.341 336.135 482.525 337.395C481.731 338.655 480.611 339.635 479.165 340.335C477.741 341.035 476.061 341.385 474.125 341.385ZM471.115 329.485V326.44L477.135 319.37L483.295 319.335L477.03 326.475L471.115 329.485ZM467.37 320.945V316.29H483.295V319.335L478.99 320.945H467.37ZM493.255 341V316.64H498.75V341H493.255ZM485.52 321.085V316.29H506.485V321.085H485.52ZM516.915 341V331.305C516.915 330.418 516.635 329.707 516.075 329.17C515.538 328.61 514.85 328.33 514.01 328.33C513.427 328.33 512.913 328.458 512.47 328.715C512.027 328.948 511.677 329.298 511.42 329.765C511.163 330.208 511.035 330.722 511.035 331.305L508.97 330.29C508.97 328.96 509.262 327.793 509.845 326.79C510.428 325.787 511.233 325.017 512.26 324.48C513.31 323.92 514.488 323.64 515.795 323.64C517.055 323.64 518.163 323.943 519.12 324.55C520.1 325.133 520.87 325.915 521.43 326.895C521.99 327.875 522.27 328.948 522.27 330.115V341H516.915ZM505.68 341V323.99H511.035V341H505.68Z" fill="white"/>
<path d="M425.406 373.6V362.496H426.91V373.6H425.406ZM434.651 373.6V369.168C434.651 368.592 434.469 368.117 434.107 367.744C433.744 367.371 433.275 367.184 432.699 367.184C432.315 367.184 431.973 367.269 431.675 367.44C431.376 367.611 431.141 367.845 430.971 368.144C430.8 368.443 430.715 368.784 430.715 369.168L430.123 368.832C430.123 368.256 430.251 367.744 430.507 367.296C430.763 366.848 431.12 366.496 431.579 366.24C432.037 365.973 432.555 365.84 433.131 365.84C433.707 365.84 434.213 365.984 434.651 366.272C435.099 366.56 435.451 366.939 435.707 367.408C435.963 367.867 436.091 368.357 436.091 368.88V373.6H434.651ZM429.275 373.6V366H430.715V373.6H429.275ZM440.648 373.6L437.16 366H438.76L441.56 372.416H440.632L443.448 366H444.984L441.496 373.6H440.648ZM449.451 373.76C448.694 373.76 448.011 373.589 447.403 373.248C446.795 372.896 446.315 372.421 445.963 371.824C445.611 371.227 445.435 370.549 445.435 369.792C445.435 369.045 445.606 368.373 445.947 367.776C446.299 367.179 446.768 366.709 447.355 366.368C447.952 366.016 448.619 365.84 449.355 365.84C450.059 365.84 450.678 366 451.211 366.32C451.755 366.64 452.176 367.083 452.475 367.648C452.784 368.213 452.939 368.853 452.939 369.568C452.939 369.675 452.934 369.792 452.923 369.92C452.912 370.037 452.891 370.176 452.859 370.336H446.443V369.136H452.091L451.563 369.6C451.563 369.088 451.472 368.656 451.291 368.304C451.11 367.941 450.854 367.664 450.523 367.472C450.192 367.269 449.792 367.168 449.323 367.168C448.832 367.168 448.4 367.275 448.027 367.488C447.654 367.701 447.366 368 447.163 368.384C446.96 368.768 446.859 369.221 446.859 369.744C446.859 370.277 446.966 370.747 447.179 371.152C447.392 371.547 447.696 371.856 448.091 372.08C448.486 372.293 448.939 372.4 449.451 372.4C449.878 372.4 450.267 372.325 450.619 372.176C450.982 372.027 451.291 371.803 451.547 371.504L452.475 372.448C452.112 372.875 451.664 373.2 451.131 373.424C450.608 373.648 450.048 373.76 449.451 373.76ZM456.925 373.76C456.498 373.76 456.093 373.707 455.709 373.6C455.336 373.483 454.989 373.323 454.669 373.12C454.349 372.907 454.072 372.656 453.837 372.368L454.765 371.44C455.042 371.781 455.362 372.037 455.725 372.208C456.088 372.368 456.493 372.448 456.941 372.448C457.389 372.448 457.736 372.373 457.981 372.224C458.226 372.064 458.349 371.845 458.349 371.568C458.349 371.291 458.248 371.077 458.045 370.928C457.853 370.768 457.602 370.64 457.293 370.544C456.984 370.437 456.653 370.336 456.301 370.24C455.96 370.133 455.634 370 455.325 369.84C455.016 369.68 454.76 369.461 454.557 369.184C454.365 368.907 454.269 368.539 454.269 368.08C454.269 367.621 454.381 367.227 454.605 366.896C454.829 366.555 455.138 366.293 455.533 366.112C455.938 365.931 456.424 365.84 456.989 365.84C457.586 365.84 458.114 365.947 458.573 366.16C459.042 366.363 459.426 366.672 459.725 367.088L458.797 368.016C458.584 367.739 458.317 367.525 457.997 367.376C457.688 367.227 457.336 367.152 456.941 367.152C456.525 367.152 456.205 367.227 455.981 367.376C455.768 367.515 455.661 367.712 455.661 367.968C455.661 368.224 455.757 368.421 455.949 368.56C456.141 368.699 456.392 368.816 456.701 368.912C457.021 369.008 457.352 369.109 457.693 369.216C458.034 369.312 458.36 369.445 458.669 369.616C458.978 369.787 459.229 370.016 459.421 370.304C459.624 370.592 459.725 370.971 459.725 371.44C459.725 372.155 459.469 372.72 458.957 373.136C458.456 373.552 457.778 373.76 456.925 373.76ZM462.505 373.6V362.816H463.945V373.6H462.505ZM460.633 367.312V366H465.817V367.312H460.633ZM470.226 373.76C469.532 373.76 468.903 373.589 468.338 373.248C467.772 372.896 467.324 372.421 466.993 371.824C466.674 371.227 466.514 370.555 466.514 369.808C466.514 369.061 466.674 368.389 466.993 367.792C467.324 367.195 467.767 366.72 468.322 366.368C468.887 366.016 469.522 365.84 470.226 365.84C470.802 365.84 471.314 365.963 471.762 366.208C472.22 366.443 472.588 366.773 472.866 367.2C473.143 367.616 473.298 368.101 473.33 368.656V370.944C473.298 371.488 473.143 371.973 472.866 372.4C472.599 372.827 472.236 373.163 471.778 373.408C471.33 373.643 470.812 373.76 470.226 373.76ZM470.466 372.4C471.18 372.4 471.756 372.16 472.194 371.68C472.631 371.189 472.85 370.565 472.85 369.808C472.85 369.285 472.748 368.832 472.546 368.448C472.354 368.053 472.076 367.749 471.714 367.536C471.351 367.312 470.93 367.2 470.45 367.2C469.97 367.2 469.543 367.312 469.17 367.536C468.807 367.76 468.519 368.069 468.306 368.464C468.103 368.848 468.002 369.291 468.002 369.792C468.002 370.304 468.103 370.757 468.306 371.152C468.519 371.536 468.812 371.84 469.186 372.064C469.559 372.288 469.986 372.4 470.466 372.4ZM472.754 373.6V371.552L473.026 369.696L472.754 367.856V366H474.21V373.6H472.754ZM480.306 373.76C479.73 373.76 479.207 373.643 478.738 373.408C478.279 373.163 477.911 372.827 477.634 372.4C477.357 371.973 477.202 371.488 477.17 370.944V368.656C477.202 368.101 477.357 367.616 477.634 367.2C477.922 366.773 478.295 366.443 478.754 366.208C479.223 365.963 479.741 365.84 480.306 365.84C480.999 365.84 481.623 366.016 482.178 366.368C482.743 366.72 483.186 367.195 483.506 367.792C483.826 368.389 483.986 369.061 483.986 369.808C483.986 370.555 483.826 371.227 483.506 371.824C483.186 372.421 482.743 372.896 482.178 373.248C481.623 373.589 480.999 373.76 480.306 373.76ZM476.306 373.6V362.176H477.746V367.856L477.474 369.696L477.746 371.552V373.6H476.306ZM480.066 372.4C480.546 372.4 480.967 372.288 481.33 372.064C481.693 371.84 481.981 371.536 482.194 371.152C482.407 370.757 482.514 370.304 482.514 369.792C482.514 369.291 482.407 368.843 482.194 368.448C481.981 368.053 481.693 367.749 481.33 367.536C480.967 367.312 480.551 367.2 480.082 367.2C479.602 367.2 479.181 367.312 478.818 367.536C478.455 367.749 478.173 368.053 477.97 368.448C477.767 368.843 477.666 369.296 477.666 369.808C477.666 370.309 477.762 370.757 477.954 371.152C478.157 371.536 478.439 371.84 478.802 372.064C479.175 372.288 479.597 372.4 480.066 372.4ZM485.618 373.6V362.176H487.059V373.6H485.618ZM492.685 373.76C491.928 373.76 491.245 373.589 490.637 373.248C490.029 372.896 489.549 372.421 489.197 371.824C488.845 371.227 488.669 370.549 488.669 369.792C488.669 369.045 488.84 368.373 489.181 367.776C489.533 367.179 490.003 366.709 490.589 366.368C491.187 366.016 491.853 365.84 492.589 365.84C493.293 365.84 493.912 366 494.445 366.32C494.989 366.64 495.411 367.083 495.709 367.648C496.019 368.213 496.173 368.853 496.173 369.568C496.173 369.675 496.168 369.792 496.157 369.92C496.147 370.037 496.125 370.176 496.093 370.336H489.677V369.136H495.325L494.797 369.6C494.797 369.088 494.707 368.656 494.525 368.304C494.344 367.941 494.088 367.664 493.757 367.472C493.427 367.269 493.027 367.168 492.557 367.168C492.067 367.168 491.635 367.275 491.261 367.488C490.888 367.701 490.6 368 490.397 368.384C490.195 368.768 490.093 369.221 490.093 369.744C490.093 370.277 490.2 370.747 490.413 371.152C490.627 371.547 490.931 371.856 491.325 372.08C491.72 372.293 492.173 372.4 492.685 372.4C493.112 372.4 493.501 372.325 493.853 372.176C494.216 372.027 494.525 371.803 494.781 371.504L495.709 372.448C495.347 372.875 494.899 373.2 494.365 373.424C493.843 373.648 493.283 373.76 492.685 373.76ZM504.304 373.76C503.61 373.76 502.981 373.589 502.416 373.248C501.85 372.896 501.402 372.421 501.072 371.824C500.752 371.227 500.592 370.555 500.592 369.808C500.592 369.061 500.752 368.389 501.072 367.792C501.402 367.195 501.845 366.72 502.4 366.368C502.965 366.016 503.6 365.84 504.304 365.84C504.88 365.84 505.392 365.963 505.84 366.208C506.298 366.443 506.666 366.773 506.944 367.2C507.221 367.616 507.376 368.101 507.408 368.656V370.944C507.376 371.488 507.221 371.973 506.944 372.4C506.677 372.827 506.314 373.163 505.856 373.408C505.408 373.643 504.89 373.76 504.304 373.76ZM504.544 372.4C505.258 372.4 505.834 372.16 506.272 371.68C506.709 371.189 506.928 370.565 506.928 369.808C506.928 369.285 506.826 368.832 506.624 368.448C506.432 368.053 506.154 367.749 505.792 367.536C505.429 367.312 505.008 367.2 504.528 367.2C504.048 367.2 503.621 367.312 503.248 367.536C502.885 367.76 502.597 368.069 502.384 368.464C502.181 368.848 502.08 369.291 502.08 369.792C502.08 370.304 502.181 370.757 502.384 371.152C502.597 371.536 502.89 371.84 503.264 372.064C503.637 372.288 504.064 372.4 504.544 372.4ZM506.832 373.6V371.552L507.104 369.696L506.832 367.856V366H508.288V373.6H506.832ZM512.8 373.76C512.373 373.76 511.968 373.707 511.584 373.6C511.211 373.483 510.864 373.323 510.544 373.12C510.224 372.907 509.947 372.656 509.712 372.368L510.64 371.44C510.917 371.781 511.237 372.037 511.6 372.208C511.963 372.368 512.368 372.448 512.816 372.448C513.264 372.448 513.611 372.373 513.856 372.224C514.101 372.064 514.224 371.845 514.224 371.568C514.224 371.291 514.123 371.077 513.92 370.928C513.728 370.768 513.477 370.64 513.168 370.544C512.859 370.437 512.528 370.336 512.176 370.24C511.835 370.133 511.509 370 511.2 369.84C510.891 369.68 510.635 369.461 510.432 369.184C510.24 368.907 510.144 368.539 510.144 368.08C510.144 367.621 510.256 367.227 510.48 366.896C510.704 366.555 511.013 366.293 511.408 366.112C511.813 365.931 512.299 365.84 512.864 365.84C513.461 365.84 513.989 365.947 514.448 366.16C514.917 366.363 515.301 366.672 515.6 367.088L514.672 368.016C514.459 367.739 514.192 367.525 513.872 367.376C513.563 367.227 513.211 367.152 512.816 367.152C512.4 367.152 512.08 367.227 511.856 367.376C511.643 367.515 511.536 367.712 511.536 367.968C511.536 368.224 511.632 368.421 511.824 368.56C512.016 368.699 512.267 368.816 512.576 368.912C512.896 369.008 513.227 369.109 513.568 369.216C513.909 369.312 514.235 369.445 514.544 369.616C514.853 369.787 515.104 370.016 515.296 370.304C515.499 370.592 515.6 370.971 515.6 371.44C515.6 372.155 515.344 372.72 514.832 373.136C514.331 373.552 513.653 373.76 512.8 373.76ZM519.628 373.76C519.202 373.76 518.796 373.707 518.412 373.6C518.039 373.483 517.692 373.323 517.372 373.12C517.052 372.907 516.775 372.656 516.54 372.368L517.468 371.44C517.746 371.781 518.066 372.037 518.428 372.208C518.791 372.368 519.196 372.448 519.644 372.448C520.092 372.448 520.439 372.373 520.684 372.224C520.93 372.064 521.052 371.845 521.052 371.568C521.052 371.291 520.951 371.077 520.748 370.928C520.556 370.768 520.306 370.64 519.996 370.544C519.687 370.437 519.356 370.336 519.004 370.24C518.663 370.133 518.338 370 518.028 369.84C517.719 369.68 517.463 369.461 517.26 369.184C517.068 368.907 516.972 368.539 516.972 368.08C516.972 367.621 517.084 367.227 517.308 366.896C517.532 366.555 517.842 366.293 518.236 366.112C518.642 365.931 519.127 365.84 519.692 365.84C520.29 365.84 520.818 365.947 521.276 366.16C521.746 366.363 522.13 366.672 522.428 367.088L521.5 368.016C521.287 367.739 521.02 367.525 520.7 367.376C520.391 367.227 520.039 367.152 519.644 367.152C519.228 367.152 518.908 367.227 518.684 367.376C518.471 367.515 518.364 367.712 518.364 367.968C518.364 368.224 518.46 368.421 518.652 368.56C518.844 368.699 519.095 368.816 519.404 368.912C519.724 369.008 520.055 369.109 520.396 369.216C520.738 369.312 521.063 369.445 521.372 369.616C521.682 369.787 521.932 370.016 522.124 370.304C522.327 370.592 522.428 370.971 522.428 371.44C522.428 372.155 522.172 372.72 521.66 373.136C521.159 373.552 520.482 373.76 519.628 373.76ZM527.56 373.76C526.803 373.76 526.12 373.589 525.512 373.248C524.904 372.896 524.424 372.421 524.072 371.824C523.72 371.227 523.544 370.549 523.544 369.792C523.544 369.045 523.715 368.373 524.056 367.776C524.408 367.179 524.878 366.709 525.464 366.368C526.062 366.016 526.728 365.84 527.464 365.84C528.168 365.84 528.787 366 529.32 366.32C529.864 366.64 530.286 367.083 530.584 367.648C530.894 368.213 531.048 368.853 531.048 369.568C531.048 369.675 531.043 369.792 531.032 369.92C531.022 370.037 531 370.176 530.968 370.336H524.552V369.136H530.2L529.672 369.6C529.672 369.088 529.582 368.656 529.4 368.304C529.219 367.941 528.963 367.664 528.632 367.472C528.302 367.269 527.902 367.168 527.432 367.168C526.942 367.168 526.51 367.275 526.136 367.488C525.763 367.701 525.475 368 525.272 368.384C525.07 368.768 524.968 369.221 524.968 369.744C524.968 370.277 525.075 370.747 525.288 371.152C525.502 371.547 525.806 371.856 526.2 372.08C526.595 372.293 527.048 372.4 527.56 372.4C527.987 372.4 528.376 372.325 528.728 372.176C529.091 372.027 529.4 371.803 529.656 371.504L530.584 372.448C530.222 372.875 529.774 373.2 529.24 373.424C528.718 373.648 528.158 373.76 527.56 373.76ZM533.568 373.6V362.816H535.008V373.6H533.568ZM531.696 367.312V366H536.88V367.312H531.696ZM540.55 373.76C540.123 373.76 539.718 373.707 539.334 373.6C538.961 373.483 538.614 373.323 538.294 373.12C537.974 372.907 537.697 372.656 537.462 372.368L538.39 371.44C538.667 371.781 538.987 372.037 539.35 372.208C539.713 372.368 540.118 372.448 540.566 372.448C541.014 372.448 541.361 372.373 541.606 372.224C541.851 372.064 541.974 371.845 541.974 371.568C541.974 371.291 541.873 371.077 541.67 370.928C541.478 370.768 541.227 370.64 540.918 370.544C540.609 370.437 540.278 370.336 539.926 370.24C539.585 370.133 539.259 370 538.95 369.84C538.641 369.68 538.385 369.461 538.182 369.184C537.99 368.907 537.894 368.539 537.894 368.08C537.894 367.621 538.006 367.227 538.23 366.896C538.454 366.555 538.763 366.293 539.158 366.112C539.563 365.931 540.049 365.84 540.614 365.84C541.211 365.84 541.739 365.947 542.198 366.16C542.667 366.363 543.051 366.672 543.35 367.088L542.422 368.016C542.209 367.739 541.942 367.525 541.622 367.376C541.313 367.227 540.961 367.152 540.566 367.152C540.15 367.152 539.83 367.227 539.606 367.376C539.393 367.515 539.286 367.712 539.286 367.968C539.286 368.224 539.382 368.421 539.574 368.56C539.766 368.699 540.017 368.816 540.326 368.912C540.646 369.008 540.977 369.109 541.318 369.216C541.659 369.312 541.985 369.445 542.294 369.616C542.603 369.787 542.854 370.016 543.046 370.304C543.249 370.592 543.35 370.971 543.35 371.44C543.35 372.155 543.094 372.72 542.582 373.136C542.081 373.552 541.403 373.76 540.55 373.76ZM423.119 394.76C422.543 394.76 422.02 394.643 421.551 394.408C421.092 394.163 420.724 393.827 420.447 393.4C420.169 392.973 420.015 392.488 419.983 391.944V389.656C420.015 389.101 420.169 388.616 420.447 388.2C420.735 387.773 421.108 387.443 421.567 387.208C422.036 386.963 422.553 386.84 423.119 386.84C423.812 386.84 424.436 387.016 424.991 387.368C425.556 387.72 425.999 388.195 426.319 388.792C426.639 389.389 426.799 390.061 426.799 390.808C426.799 391.555 426.639 392.227 426.319 392.824C425.999 393.421 425.556 393.896 424.991 394.248C424.436 394.589 423.812 394.76 423.119 394.76ZM419.118 397.784V387H420.559V389L420.287 390.84L420.559 392.696V397.784H419.118ZM422.879 393.4C423.359 393.4 423.78 393.288 424.143 393.064C424.505 392.84 424.793 392.536 425.007 392.152C425.22 391.757 425.327 391.304 425.327 390.792C425.327 390.291 425.22 389.843 425.007 389.448C424.793 389.053 424.505 388.749 424.143 388.536C423.78 388.312 423.364 388.2 422.895 388.2C422.415 388.2 421.993 388.312 421.631 388.536C421.268 388.749 420.985 389.053 420.783 389.448C420.58 389.843 420.479 390.296 420.479 390.808C420.479 391.309 420.575 391.757 420.767 392.152C420.969 392.536 421.252 392.84 421.615 393.064C421.988 393.288 422.409 393.4 422.879 393.4ZM428.431 394.6V387H429.871V394.6H428.431ZM429.871 390.264L429.327 390.024C429.327 389.053 429.551 388.28 429.999 387.704C430.447 387.128 431.092 386.84 431.935 386.84C432.319 386.84 432.666 386.909 432.975 387.048C433.284 387.176 433.572 387.395 433.839 387.704L432.895 388.68C432.735 388.509 432.559 388.387 432.367 388.312C432.175 388.237 431.951 388.2 431.695 388.2C431.162 388.2 430.724 388.371 430.383 388.712C430.042 389.053 429.871 389.571 429.871 390.264ZM438.123 394.76C437.366 394.76 436.683 394.589 436.075 394.248C435.467 393.896 434.987 393.421 434.635 392.824C434.283 392.227 434.107 391.549 434.107 390.792C434.107 390.045 434.278 389.373 434.619 388.776C434.971 388.179 435.44 387.709 436.027 387.368C436.624 387.016 437.291 386.84 438.027 386.84C438.731 386.84 439.35 387 439.883 387.32C440.427 387.64 440.848 388.083 441.147 388.648C441.456 389.213 441.611 389.853 441.611 390.568C441.611 390.675 441.606 390.792 441.595 390.92C441.584 391.037 441.563 391.176 441.531 391.336H435.115V390.136H440.763L440.235 390.6C440.235 390.088 440.144 389.656 439.963 389.304C439.782 388.941 439.526 388.664 439.195 388.472C438.864 388.269 438.464 388.168 437.995 388.168C437.504 388.168 437.072 388.275 436.699 388.488C436.326 388.701 436.038 389 435.835 389.384C435.632 389.768 435.531 390.221 435.531 390.744C435.531 391.277 435.638 391.747 435.851 392.152C436.064 392.547 436.368 392.856 436.763 393.08C437.158 393.293 437.611 393.4 438.123 393.4C438.55 393.4 438.939 393.325 439.291 393.176C439.654 393.027 439.963 392.803 440.219 392.504L441.147 393.448C440.784 393.875 440.336 394.2 439.803 394.424C439.28 394.648 438.72 394.76 438.123 394.76ZM446.397 394.76C445.693 394.76 445.064 394.589 444.509 394.248C443.954 393.896 443.512 393.421 443.181 392.824C442.861 392.227 442.701 391.555 442.701 390.808C442.701 390.061 442.861 389.389 443.181 388.792C443.512 388.195 443.954 387.72 444.509 387.368C445.064 387.016 445.693 386.84 446.397 386.84C446.962 386.84 447.474 386.963 447.933 387.208C448.392 387.443 448.76 387.773 449.037 388.2C449.325 388.616 449.485 389.101 449.517 389.656V391.944C449.485 392.488 449.33 392.973 449.053 393.4C448.776 393.827 448.408 394.163 447.949 394.408C447.49 394.643 446.973 394.76 446.397 394.76ZM446.637 393.4C447.117 393.4 447.533 393.288 447.885 393.064C448.248 392.84 448.53 392.536 448.733 392.152C448.936 391.757 449.037 391.309 449.037 390.808C449.037 390.285 448.93 389.832 448.717 389.448C448.514 389.064 448.232 388.76 447.869 388.536C447.517 388.312 447.101 388.2 446.621 388.2C446.141 388.2 445.72 388.312 445.357 388.536C444.994 388.76 444.706 389.069 444.493 389.464C444.29 389.848 444.189 390.291 444.189 390.792C444.189 391.304 444.29 391.757 444.493 392.152C444.706 392.536 444.994 392.84 445.357 393.064C445.73 393.288 446.157 393.4 446.637 393.4ZM450.397 394.6H448.941V392.552L449.213 390.696L448.941 388.856V383.176H450.397V394.6ZM452.51 394.6V387H453.95V394.6H452.51ZM453.23 385.48C452.963 385.48 452.744 385.395 452.574 385.224C452.403 385.043 452.318 384.819 452.318 384.552C452.318 384.296 452.403 384.083 452.574 383.912C452.744 383.731 452.963 383.64 453.23 383.64C453.496 383.64 453.715 383.731 453.886 383.912C454.056 384.083 454.142 384.296 454.142 384.552C454.142 384.819 454.056 385.043 453.886 385.224C453.715 385.395 453.496 385.48 453.23 385.48ZM459.544 394.76C458.797 394.76 458.12 394.584 457.512 394.232C456.914 393.88 456.44 393.405 456.088 392.808C455.746 392.2 455.576 391.528 455.576 390.792C455.576 390.045 455.746 389.373 456.088 388.776C456.44 388.179 456.914 387.709 457.512 387.368C458.12 387.016 458.797 386.84 459.544 386.84C460.13 386.84 460.674 386.952 461.176 387.176C461.677 387.389 462.109 387.704 462.472 388.12L461.512 389.08C461.277 388.803 460.989 388.595 460.648 388.456C460.317 388.307 459.949 388.232 459.544 388.232C459.064 388.232 458.637 388.344 458.264 388.568C457.89 388.781 457.597 389.08 457.384 389.464C457.17 389.848 457.064 390.291 457.064 390.792C457.064 391.293 457.17 391.736 457.384 392.12C457.597 392.504 457.89 392.808 458.264 393.032C458.637 393.256 459.064 393.368 459.544 393.368C459.949 393.368 460.317 393.299 460.648 393.16C460.989 393.011 461.282 392.797 461.528 392.52L462.472 393.48C462.12 393.885 461.688 394.2 461.176 394.424C460.674 394.648 460.13 394.76 459.544 394.76ZM464.974 394.6V383.816H466.414V394.6H464.974ZM463.102 388.312V387H468.286V388.312H463.102ZM472.982 394.76C472.225 394.76 471.542 394.589 470.934 394.248C470.326 393.896 469.846 393.421 469.494 392.824C469.142 392.227 468.966 391.549 468.966 390.792C468.966 390.045 469.137 389.373 469.478 388.776C469.83 388.179 470.3 387.709 470.886 387.368C471.484 387.016 472.15 386.84 472.886 386.84C473.59 386.84 474.209 387 474.742 387.32C475.286 387.64 475.708 388.083 476.006 388.648C476.316 389.213 476.47 389.853 476.47 390.568C476.47 390.675 476.465 390.792 476.454 390.92C476.444 391.037 476.422 391.176 476.39 391.336H469.974V390.136H475.622L475.094 390.6C475.094 390.088 475.004 389.656 474.822 389.304C474.641 388.941 474.385 388.664 474.054 388.472C473.724 388.269 473.324 388.168 472.854 388.168C472.364 388.168 471.932 388.275 471.558 388.488C471.185 388.701 470.897 389 470.694 389.384C470.492 389.768 470.39 390.221 470.39 390.744C470.39 391.277 470.497 391.747 470.71 392.152C470.924 392.547 471.228 392.856 471.622 393.08C472.017 393.293 472.47 393.4 472.982 393.4C473.409 393.4 473.798 393.325 474.15 393.176C474.513 393.027 474.822 392.803 475.078 392.504L476.006 393.448C475.644 393.875 475.196 394.2 474.662 394.424C474.14 394.648 473.58 394.76 472.982 394.76ZM481.256 394.76C480.552 394.76 479.923 394.589 479.368 394.248C478.814 393.896 478.371 393.421 478.04 392.824C477.72 392.227 477.56 391.555 477.56 390.808C477.56 390.061 477.72 389.389 478.04 388.792C478.371 388.195 478.814 387.72 479.368 387.368C479.923 387.016 480.552 386.84 481.256 386.84C481.822 386.84 482.334 386.963 482.792 387.208C483.251 387.443 483.619 387.773 483.896 388.2C484.184 388.616 484.344 389.101 484.376 389.656V391.944C484.344 392.488 484.19 392.973 483.912 393.4C483.635 393.827 483.267 394.163 482.808 394.408C482.35 394.643 481.832 394.76 481.256 394.76ZM481.496 393.4C481.976 393.4 482.392 393.288 482.744 393.064C483.107 392.84 483.39 392.536 483.592 392.152C483.795 391.757 483.896 391.309 483.896 390.808C483.896 390.285 483.79 389.832 483.576 389.448C483.374 389.064 483.091 388.76 482.728 388.536C482.376 388.312 481.96 388.2 481.48 388.2C481 388.2 480.579 388.312 480.216 388.536C479.854 388.76 479.566 389.069 479.352 389.464C479.15 389.848 479.048 390.291 479.048 390.792C479.048 391.304 479.15 391.757 479.352 392.152C479.566 392.536 479.854 392.84 480.216 393.064C480.59 393.288 481.016 393.4 481.496 393.4ZM485.256 394.6H483.8V392.552L484.072 390.696L483.8 388.856V383.176H485.256V394.6ZM494.681 394.76C494.105 394.76 493.582 394.643 493.113 394.408C492.654 394.163 492.286 393.827 492.009 393.4C491.732 392.973 491.577 392.488 491.545 391.944V389.656C491.577 389.101 491.732 388.616 492.009 388.2C492.297 387.773 492.67 387.443 493.129 387.208C493.598 386.963 494.116 386.84 494.681 386.84C495.374 386.84 495.998 387.016 496.553 387.368C497.118 387.72 497.561 388.195 497.881 388.792C498.201 389.389 498.361 390.061 498.361 390.808C498.361 391.555 498.201 392.227 497.881 392.824C497.561 393.421 497.118 393.896 496.553 394.248C495.998 394.589 495.374 394.76 494.681 394.76ZM490.681 397.784V387H492.121V389L491.849 390.84L492.121 392.696V397.784H490.681ZM494.441 393.4C494.921 393.4 495.342 393.288 495.705 393.064C496.068 392.84 496.356 392.536 496.569 392.152C496.782 391.757 496.889 391.304 496.889 390.792C496.889 390.291 496.782 389.843 496.569 389.448C496.356 389.053 496.068 388.749 495.705 388.536C495.342 388.312 494.926 388.2 494.457 388.2C493.977 388.2 493.556 388.312 493.193 388.536C492.83 388.749 492.548 389.053 492.345 389.448C492.142 389.843 492.041 390.296 492.041 390.808C492.041 391.309 492.137 391.757 492.329 392.152C492.532 392.536 492.814 392.84 493.177 393.064C493.55 393.288 493.972 393.4 494.441 393.4ZM503.514 394.76C502.756 394.76 502.074 394.589 501.466 394.248C500.858 393.896 500.378 393.421 500.026 392.824C499.674 392.227 499.498 391.549 499.498 390.792C499.498 390.045 499.668 389.373 500.01 388.776C500.362 388.179 500.831 387.709 501.418 387.368C502.015 387.016 502.682 386.84 503.418 386.84C504.122 386.84 504.74 387 505.274 387.32C505.818 387.64 506.239 388.083 506.538 388.648C506.847 389.213 507.002 389.853 507.002 390.568C507.002 390.675 506.996 390.792 506.986 390.92C506.975 391.037 506.954 391.176 506.922 391.336H500.506V390.136H506.154L505.626 390.6C505.626 390.088 505.535 389.656 505.354 389.304C505.172 388.941 504.916 388.664 504.586 388.472C504.255 388.269 503.855 388.168 503.386 388.168C502.895 388.168 502.463 388.275 502.09 388.488C501.716 388.701 501.428 389 501.226 389.384C501.023 389.768 500.922 390.221 500.922 390.744C500.922 391.277 501.028 391.747 501.242 392.152C501.455 392.547 501.759 392.856 502.154 393.08C502.548 393.293 503.002 393.4 503.514 393.4C503.94 393.4 504.33 393.325 504.682 393.176C505.044 393.027 505.354 392.803 505.61 392.504L506.538 393.448C506.175 393.875 505.727 394.2 505.194 394.424C504.671 394.648 504.111 394.76 503.514 394.76ZM508.572 394.6V387H510.012V394.6H508.572ZM510.012 390.264L509.468 390.024C509.468 389.053 509.692 388.28 510.14 387.704C510.588 387.128 511.233 386.84 512.076 386.84C512.46 386.84 512.806 386.909 513.116 387.048C513.425 387.176 513.713 387.395 513.98 387.704L513.036 388.68C512.876 388.509 512.7 388.387 512.508 388.312C512.316 388.237 512.092 388.2 511.836 388.2C511.302 388.2 510.865 388.371 510.524 388.712C510.182 389.053 510.012 389.571 510.012 390.264ZM521.099 394.664L517.803 387H519.403L521.851 393H521.339L523.915 387H525.515L521.963 394.664H521.099ZM518.923 397.784L521.163 393.192L521.963 394.664L520.523 397.784H518.923ZM529.92 394.76C529.162 394.76 528.48 394.589 527.872 394.248C527.264 393.896 526.784 393.421 526.432 392.824C526.08 392.227 525.904 391.549 525.904 390.792C525.904 390.045 526.074 389.373 526.416 388.776C526.768 388.179 527.237 387.709 527.824 387.368C528.421 387.016 529.088 386.84 529.824 386.84C530.528 386.84 531.146 387 531.68 387.32C532.224 387.64 532.645 388.083 532.944 388.648C533.253 389.213 533.408 389.853 533.408 390.568C533.408 390.675 533.402 390.792 533.392 390.92C533.381 391.037 533.36 391.176 533.328 391.336H526.912V390.136H532.56L532.032 390.6C532.032 390.088 531.941 389.656 531.76 389.304C531.578 388.941 531.322 388.664 530.992 388.472C530.661 388.269 530.261 388.168 529.792 388.168C529.301 388.168 528.869 388.275 528.496 388.488C528.122 388.701 527.834 389 527.632 389.384C527.429 389.768 527.328 390.221 527.328 390.744C527.328 391.277 527.434 391.747 527.648 392.152C527.861 392.547 528.165 392.856 528.56 393.08C528.954 393.293 529.408 393.4 529.92 393.4C530.346 393.4 530.736 393.325 531.088 393.176C531.45 393.027 531.76 392.803 532.016 392.504L532.944 393.448C532.581 393.875 532.133 394.2 531.6 394.424C531.077 394.648 530.517 394.76 529.92 394.76ZM538.21 394.76C537.517 394.76 536.887 394.589 536.322 394.248C535.757 393.896 535.309 393.421 534.978 392.824C534.658 392.227 534.498 391.555 534.498 390.808C534.498 390.061 534.658 389.389 534.978 388.792C535.309 388.195 535.751 387.72 536.306 387.368C536.871 387.016 537.506 386.84 538.21 386.84C538.786 386.84 539.298 386.963 539.746 387.208C540.205 387.443 540.573 387.773 540.85 388.2C541.127 388.616 541.282 389.101 541.314 389.656V391.944C541.282 392.488 541.127 392.973 540.85 393.4C540.583 393.827 540.221 394.163 539.762 394.408C539.314 394.643 538.797 394.76 538.21 394.76ZM538.45 393.4C539.165 393.4 539.741 393.16 540.178 392.68C540.615 392.189 540.834 391.565 540.834 390.808C540.834 390.285 540.733 389.832 540.53 389.448C540.338 389.053 540.061 388.749 539.698 388.536C539.335 388.312 538.914 388.2 538.434 388.2C537.954 388.2 537.527 388.312 537.154 388.536C536.791 388.76 536.503 389.069 536.29 389.464C536.087 389.848 535.986 390.291 535.986 390.792C535.986 391.304 536.087 391.757 536.29 392.152C536.503 392.536 536.797 392.84 537.17 393.064C537.543 393.288 537.97 393.4 538.45 393.4ZM540.738 394.6V392.552L541.01 390.696L540.738 388.856V387H542.194V394.6H540.738ZM544.29 394.6V387H545.73V394.6H544.29ZM545.73 390.264L545.186 390.024C545.186 389.053 545.41 388.28 545.858 387.704C546.306 387.128 546.952 386.84 547.794 386.84C548.178 386.84 548.525 386.909 548.834 387.048C549.144 387.176 549.432 387.395 549.698 387.704L548.754 388.68C548.594 388.509 548.418 388.387 548.226 388.312C548.034 388.237 547.81 388.2 547.554 388.2C547.021 388.2 546.584 388.371 546.242 388.712C545.901 389.053 545.73 389.571 545.73 390.264Z" fill="white" fill-opacity="0.87"/>
<path d="M679.919 341.385C678.005 341.385 676.337 341.058 674.914 340.405C673.49 339.728 672.195 338.713 671.029 337.36L674.494 333.825C675.264 334.758 676.115 335.493 677.049 336.03C677.982 336.543 679.055 336.8 680.269 336.8C681.412 336.8 682.299 336.59 682.929 336.17C683.559 335.727 683.874 335.108 683.874 334.315C683.874 333.638 683.664 333.09 683.244 332.67C682.847 332.25 682.31 331.888 681.634 331.585C680.957 331.282 680.21 330.99 679.394 330.71C678.577 330.43 677.76 330.115 676.944 329.765C676.15 329.392 675.415 328.937 674.739 328.4C674.062 327.84 673.514 327.152 673.094 326.335C672.674 325.495 672.464 324.445 672.464 323.185C672.464 321.668 672.825 320.362 673.549 319.265C674.295 318.168 675.31 317.34 676.594 316.78C677.877 316.197 679.347 315.905 681.004 315.905C682.614 315.905 684.119 316.208 685.519 316.815C686.919 317.422 688.062 318.25 688.949 319.3L685.484 322.835C684.76 322.065 684.025 321.482 683.279 321.085C682.555 320.665 681.762 320.455 680.899 320.455C679.895 320.455 679.114 320.642 678.554 321.015C677.994 321.388 677.714 321.937 677.714 322.66C677.714 323.29 677.924 323.803 678.344 324.2C678.764 324.573 679.312 324.9 679.989 325.18C680.689 325.46 681.435 325.74 682.229 326.02C683.045 326.3 683.862 326.627 684.679 327C685.495 327.373 686.242 327.852 686.919 328.435C687.619 328.995 688.179 329.718 688.599 330.605C689.019 331.468 689.229 332.542 689.229 333.825C689.229 336.182 688.4 338.037 686.744 339.39C685.11 340.72 682.835 341.385 679.919 341.385ZM678.764 338.655H682.614V344.535H678.764V338.655ZM682.614 318.425H678.764V312.755H682.614V318.425ZM694.232 341L702.632 319.37H707.987L699.902 341H694.232ZM690.942 320.945V316.29H707.987V319.37L706.167 320.945H690.942ZM712.313 341L720.713 319.37H726.068L717.983 341H712.313ZM709.023 320.945V316.29H726.068V319.37L724.248 320.945H709.023ZM733.36 341V336.73H739.17C740.244 336.73 741.084 336.415 741.69 335.785C742.297 335.155 742.6 334.385 742.6 333.475C742.6 332.845 742.46 332.285 742.18 331.795C741.9 331.305 741.504 330.92 740.99 330.64C740.5 330.36 739.894 330.22 739.17 330.22H733.36V326.055H738.715C739.625 326.055 740.36 325.833 740.92 325.39C741.48 324.923 741.76 324.223 741.76 323.29C741.76 322.38 741.48 321.703 740.92 321.26C740.36 320.793 739.625 320.56 738.715 320.56H733.36V316.29H739.765C741.352 316.29 742.694 316.582 743.79 317.165C744.91 317.748 745.762 318.53 746.345 319.51C746.929 320.49 747.22 321.575 747.22 322.765C747.22 324.282 746.73 325.565 745.75 326.615C744.77 327.665 743.324 328.388 741.41 328.785L741.55 326.93C743.627 327.327 745.225 328.132 746.345 329.345C747.489 330.558 748.06 332.052 748.06 333.825C748.06 335.178 747.722 336.403 747.045 337.5C746.392 338.573 745.435 339.425 744.175 340.055C742.939 340.685 741.445 341 739.695 341H733.36ZM729.16 341V316.29H734.585V341H729.16ZM762.327 341V331.305C762.327 330.418 762.047 329.707 761.487 329.17C760.95 328.61 760.262 328.33 759.422 328.33C758.839 328.33 758.325 328.458 757.882 328.715C757.439 328.948 757.089 329.298 756.832 329.765C756.575 330.208 756.447 330.722 756.447 331.305L754.382 330.29C754.382 328.96 754.674 327.793 755.257 326.79C755.84 325.787 756.645 325.017 757.672 324.48C758.722 323.92 759.9 323.64 761.207 323.64C762.467 323.64 763.575 323.943 764.532 324.55C765.512 325.133 766.282 325.915 766.842 326.895C767.402 327.875 767.682 328.948 767.682 330.115V341H762.327ZM751.092 341V323.99H756.447V341H751.092Z" fill="white"/>
<path d="M665.797 369.28V367.968H668.821C669.237 367.968 669.605 367.883 669.925 367.712C670.255 367.541 670.511 367.301 670.693 366.992C670.885 366.683 670.981 366.315 670.981 365.888C670.981 365.461 670.885 365.093 670.693 364.784C670.511 364.475 670.255 364.235 669.925 364.064C669.605 363.893 669.237 363.808 668.821 363.808H665.797V362.496H668.917C669.599 362.496 670.207 362.635 670.741 362.912C671.285 363.189 671.711 363.584 672.021 364.096C672.341 364.597 672.501 365.195 672.501 365.888C672.501 366.571 672.341 367.168 672.021 367.68C671.711 368.181 671.285 368.576 670.741 368.864C670.207 369.141 669.599 369.28 668.917 369.28H665.797ZM664.789 373.6V362.496H666.293V373.6H664.789ZM674.236 373.6V366H675.676V373.6H674.236ZM675.676 369.264L675.132 369.024C675.132 368.053 675.356 367.28 675.804 366.704C676.252 366.128 676.897 365.84 677.74 365.84C678.124 365.84 678.47 365.909 678.78 366.048C679.089 366.176 679.377 366.395 679.644 366.704L678.7 367.68C678.54 367.509 678.364 367.387 678.172 367.312C677.98 367.237 677.756 367.2 677.5 367.2C676.966 367.2 676.529 367.371 676.188 367.712C675.846 368.053 675.676 368.571 675.676 369.264ZM683.928 373.76C683.17 373.76 682.488 373.589 681.88 373.248C681.272 372.896 680.792 372.421 680.44 371.824C680.088 371.227 679.912 370.549 679.912 369.792C679.912 369.045 680.082 368.373 680.424 367.776C680.776 367.179 681.245 366.709 681.832 366.368C682.429 366.016 683.096 365.84 683.832 365.84C684.536 365.84 685.154 366 685.688 366.32C686.232 366.64 686.653 367.083 686.952 367.648C687.261 368.213 687.416 368.853 687.416 369.568C687.416 369.675 687.41 369.792 687.4 369.92C687.389 370.037 687.368 370.176 687.336 370.336H680.92V369.136H686.568L686.04 369.6C686.04 369.088 685.949 368.656 685.768 368.304C685.586 367.941 685.33 367.664 685 367.472C684.669 367.269 684.269 367.168 683.8 367.168C683.309 367.168 682.877 367.275 682.504 367.488C682.13 367.701 681.842 368 681.64 368.384C681.437 368.768 681.336 369.221 681.336 369.744C681.336 370.277 681.442 370.747 681.656 371.152C681.869 371.547 682.173 371.856 682.568 372.08C682.962 372.293 683.416 372.4 683.928 372.4C684.354 372.4 684.744 372.325 685.096 372.176C685.458 372.027 685.768 371.803 686.024 371.504L686.952 372.448C686.589 372.875 686.141 373.2 685.608 373.424C685.085 373.648 684.525 373.76 683.928 373.76ZM692.202 373.76C691.498 373.76 690.868 373.589 690.314 373.248C689.759 372.896 689.316 372.421 688.986 371.824C688.666 371.227 688.506 370.555 688.506 369.808C688.506 369.061 688.666 368.389 688.986 367.792C689.316 367.195 689.759 366.72 690.314 366.368C690.868 366.016 691.498 365.84 692.202 365.84C692.767 365.84 693.279 365.963 693.738 366.208C694.196 366.443 694.564 366.773 694.842 367.2C695.13 367.616 695.29 368.101 695.322 368.656V370.944C695.29 371.488 695.135 371.973 694.858 372.4C694.58 372.827 694.212 373.163 693.754 373.408C693.295 373.643 692.778 373.76 692.202 373.76ZM692.442 372.4C692.922 372.4 693.338 372.288 693.69 372.064C694.052 371.84 694.335 371.536 694.538 371.152C694.74 370.757 694.842 370.309 694.842 369.808C694.842 369.285 694.735 368.832 694.522 368.448C694.319 368.064 694.036 367.76 693.674 367.536C693.322 367.312 692.906 367.2 692.426 367.2C691.946 367.2 691.524 367.312 691.162 367.536C690.799 367.76 690.511 368.069 690.298 368.464C690.095 368.848 689.994 369.291 689.994 369.792C689.994 370.304 690.095 370.757 690.298 371.152C690.511 371.536 690.799 371.84 691.162 372.064C691.535 372.288 691.962 372.4 692.442 372.4ZM696.202 373.6H694.746V371.552L695.018 369.696L694.746 367.856V362.176H696.202V373.6ZM698.314 373.6V366H699.754V373.6H698.314ZM699.034 364.48C698.768 364.48 698.549 364.395 698.378 364.224C698.208 364.043 698.122 363.819 698.122 363.552C698.122 363.296 698.208 363.083 698.378 362.912C698.549 362.731 698.768 362.64 699.034 362.64C699.301 362.64 699.52 362.731 699.69 362.912C699.861 363.083 699.946 363.296 699.946 363.552C699.946 363.819 699.861 364.043 699.69 364.224C699.52 364.395 699.301 364.48 699.034 364.48ZM705.348 373.76C704.602 373.76 703.924 373.584 703.316 373.232C702.719 372.88 702.244 372.405 701.892 371.808C701.551 371.2 701.38 370.528 701.38 369.792C701.38 369.045 701.551 368.373 701.892 367.776C702.244 367.179 702.719 366.709 703.316 366.368C703.924 366.016 704.602 365.84 705.348 365.84C705.935 365.84 706.479 365.952 706.98 366.176C707.482 366.389 707.914 366.704 708.276 367.12L707.316 368.08C707.082 367.803 706.794 367.595 706.452 367.456C706.122 367.307 705.754 367.232 705.348 367.232C704.868 367.232 704.442 367.344 704.068 367.568C703.695 367.781 703.402 368.08 703.188 368.464C702.975 368.848 702.868 369.291 702.868 369.792C702.868 370.293 702.975 370.736 703.188 371.12C703.402 371.504 703.695 371.808 704.068 372.032C704.442 372.256 704.868 372.368 705.348 372.368C705.754 372.368 706.122 372.299 706.452 372.16C706.794 372.011 707.087 371.797 707.332 371.52L708.276 372.48C707.924 372.885 707.492 373.2 706.98 373.424C706.479 373.648 705.935 373.76 705.348 373.76ZM710.779 373.6V362.816H712.219V373.6H710.779ZM708.907 367.312V366H714.091V367.312H708.907ZM718.787 373.76C718.03 373.76 717.347 373.589 716.739 373.248C716.131 372.896 715.651 372.421 715.299 371.824C714.947 371.227 714.771 370.549 714.771 369.792C714.771 369.045 714.942 368.373 715.283 367.776C715.635 367.179 716.104 366.709 716.691 366.368C717.288 366.016 717.955 365.84 718.691 365.84C719.395 365.84 720.014 366 720.547 366.32C721.091 366.64 721.512 367.083 721.811 367.648C722.12 368.213 722.275 368.853 722.275 369.568C722.275 369.675 722.27 369.792 722.259 369.92C722.248 370.037 722.227 370.176 722.195 370.336H715.779V369.136H721.427L720.899 369.6C720.899 369.088 720.808 368.656 720.627 368.304C720.446 367.941 720.19 367.664 719.859 367.472C719.528 367.269 719.128 367.168 718.659 367.168C718.168 367.168 717.736 367.275 717.363 367.488C716.99 367.701 716.702 368 716.499 368.384C716.296 368.768 716.195 369.221 716.195 369.744C716.195 370.277 716.302 370.747 716.515 371.152C716.728 371.547 717.032 371.856 717.427 372.08C717.822 372.293 718.275 372.4 718.787 372.4C719.214 372.4 719.603 372.325 719.955 372.176C720.318 372.027 720.627 371.803 720.883 371.504L721.811 372.448C721.448 372.875 721 373.2 720.467 373.424C719.944 373.648 719.384 373.76 718.787 373.76ZM727.061 373.76C726.357 373.76 725.728 373.589 725.173 373.248C724.618 372.896 724.176 372.421 723.845 371.824C723.525 371.227 723.365 370.555 723.365 369.808C723.365 369.061 723.525 368.389 723.845 367.792C724.176 367.195 724.618 366.72 725.173 366.368C725.728 366.016 726.357 365.84 727.061 365.84C727.626 365.84 728.138 365.963 728.597 366.208C729.056 366.443 729.424 366.773 729.701 367.2C729.989 367.616 730.149 368.101 730.181 368.656V370.944C730.149 371.488 729.994 371.973 729.717 372.4C729.44 372.827 729.072 373.163 728.613 373.408C728.154 373.643 727.637 373.76 727.061 373.76ZM727.301 372.4C727.781 372.4 728.197 372.288 728.549 372.064C728.912 371.84 729.194 371.536 729.397 371.152C729.6 370.757 729.701 370.309 729.701 369.808C729.701 369.285 729.594 368.832 729.381 368.448C729.178 368.064 728.896 367.76 728.533 367.536C728.181 367.312 727.765 367.2 727.285 367.2C726.805 367.2 726.384 367.312 726.021 367.536C725.658 367.76 725.37 368.069 725.157 368.464C724.954 368.848 724.853 369.291 724.853 369.792C724.853 370.304 724.954 370.757 725.157 371.152C725.37 371.536 725.658 371.84 726.021 372.064C726.394 372.288 726.821 372.4 727.301 372.4ZM731.061 373.6H729.605V371.552L729.877 369.696L729.605 367.856V362.176H731.061V373.6ZM741.862 373.6V369.168C741.862 368.592 741.68 368.117 741.318 367.744C740.955 367.371 740.486 367.184 739.91 367.184C739.526 367.184 739.184 367.269 738.886 367.44C738.587 367.611 738.352 367.845 738.182 368.144C738.011 368.443 737.926 368.784 737.926 369.168L737.334 368.832C737.334 368.256 737.462 367.744 737.718 367.296C737.974 366.848 738.331 366.496 738.79 366.24C739.248 365.973 739.766 365.84 740.342 365.84C740.918 365.84 741.424 365.968 741.862 366.224C742.31 366.48 742.662 366.837 742.918 367.296C743.174 367.755 743.302 368.283 743.302 368.88V373.6H741.862ZM736.486 373.6V362.176H737.926V373.6H736.486ZM748.723 373.76C747.977 373.76 747.305 373.584 746.707 373.232C746.11 372.88 745.635 372.405 745.283 371.808C744.931 371.2 744.755 370.523 744.755 369.776C744.755 369.04 744.931 368.379 745.283 367.792C745.635 367.195 746.11 366.72 746.707 366.368C747.305 366.016 747.977 365.84 748.723 365.84C749.459 365.84 750.126 366.016 750.723 366.368C751.331 366.709 751.811 367.179 752.163 367.776C752.515 368.373 752.691 369.04 752.691 369.776C752.691 370.523 752.515 371.2 752.163 371.808C751.811 372.405 751.331 372.88 750.723 373.232C750.126 373.584 749.459 373.76 748.723 373.76ZM748.723 372.368C749.203 372.368 749.63 372.256 750.003 372.032C750.377 371.808 750.67 371.504 750.883 371.12C751.097 370.725 751.203 370.277 751.203 369.776C751.203 369.285 751.091 368.848 750.867 368.464C750.654 368.08 750.361 367.781 749.987 367.568C749.625 367.344 749.203 367.232 748.723 367.232C748.243 367.232 747.817 367.344 747.443 367.568C747.07 367.781 746.777 368.08 746.563 368.464C746.35 368.848 746.243 369.285 746.243 369.776C746.243 370.277 746.35 370.725 746.563 371.12C746.777 371.504 747.07 371.808 747.443 372.032C747.817 372.256 748.243 372.368 748.723 372.368ZM754.314 373.6V366H755.754V373.6H754.314ZM759.45 373.6V369.008C759.45 368.443 759.274 368 758.922 367.68C758.58 367.349 758.148 367.184 757.626 367.184C757.274 367.184 756.959 367.259 756.682 367.408C756.404 367.557 756.18 367.765 756.01 368.032C755.839 368.299 755.754 368.619 755.754 368.992L755.162 368.704C755.162 368.128 755.284 367.627 755.53 367.2C755.786 366.773 756.132 366.443 756.57 366.208C757.007 365.963 757.498 365.84 758.042 365.84C758.575 365.84 759.055 365.957 759.482 366.192C759.919 366.427 760.26 366.757 760.506 367.184C760.762 367.611 760.89 368.117 760.89 368.704V373.6H759.45ZM764.586 373.6V369.008C764.586 368.443 764.41 368 764.058 367.68C763.716 367.349 763.29 367.184 762.778 367.184C762.426 367.184 762.106 367.259 761.818 367.408C761.54 367.557 761.316 367.765 761.146 368.032C760.975 368.299 760.89 368.619 760.89 368.992L760.074 368.704C760.106 368.117 760.26 367.616 760.538 367.2C760.826 366.773 761.194 366.443 761.642 366.208C762.09 365.963 762.58 365.84 763.114 365.84C763.668 365.84 764.164 365.957 764.602 366.192C765.039 366.427 765.386 366.757 765.642 367.184C765.908 367.611 766.042 368.123 766.042 368.72V373.6H764.586ZM771.521 373.76C770.764 373.76 770.081 373.589 769.473 373.248C768.865 372.896 768.385 372.421 768.033 371.824C767.681 371.227 767.505 370.549 767.505 369.792C767.505 369.045 767.676 368.373 768.017 367.776C768.369 367.179 768.839 366.709 769.425 366.368C770.023 366.016 770.689 365.84 771.425 365.84C772.129 365.84 772.748 366 773.281 366.32C773.825 366.64 774.247 367.083 774.545 367.648C774.855 368.213 775.009 368.853 775.009 369.568C775.009 369.675 775.004 369.792 774.993 369.92C774.983 370.037 774.961 370.176 774.929 370.336H768.513V369.136H774.161L773.633 369.6C773.633 369.088 773.543 368.656 773.361 368.304C773.18 367.941 772.924 367.664 772.593 367.472C772.263 367.269 771.863 367.168 771.393 367.168C770.903 367.168 770.471 367.275 770.097 367.488C769.724 367.701 769.436 368 769.233 368.384C769.031 368.768 768.929 369.221 768.929 369.744C768.929 370.277 769.036 370.747 769.249 371.152C769.463 371.547 769.767 371.856 770.161 372.08C770.556 372.293 771.009 372.4 771.521 372.4C771.948 372.4 772.337 372.325 772.689 372.176C773.052 372.027 773.361 371.803 773.617 371.504L774.545 372.448C774.183 372.875 773.735 373.2 773.201 373.424C772.679 373.648 772.119 373.76 771.521 373.76ZM633.781 394.6L630.293 387H631.893L634.693 393.416H633.765L636.581 387H638.117L634.629 394.6H633.781ZM642.28 394.76C641.587 394.76 640.958 394.589 640.392 394.248C639.827 393.896 639.379 393.421 639.048 392.824C638.728 392.227 638.568 391.555 638.568 390.808C638.568 390.061 638.728 389.389 639.048 388.792C639.379 388.195 639.822 387.72 640.376 387.368C640.942 387.016 641.576 386.84 642.28 386.84C642.856 386.84 643.368 386.963 643.816 387.208C644.275 387.443 644.643 387.773 644.92 388.2C645.198 388.616 645.352 389.101 645.384 389.656V391.944C645.352 392.488 645.198 392.973 644.92 393.4C644.654 393.827 644.291 394.163 643.832 394.408C643.384 394.643 642.867 394.76 642.28 394.76ZM642.52 393.4C643.235 393.4 643.811 393.16 644.248 392.68C644.686 392.189 644.904 391.565 644.904 390.808C644.904 390.285 644.803 389.832 644.6 389.448C644.408 389.053 644.131 388.749 643.768 388.536C643.406 388.312 642.984 388.2 642.504 388.2C642.024 388.2 641.598 388.312 641.224 388.536C640.862 388.76 640.574 389.069 640.36 389.464C640.158 389.848 640.056 390.291 640.056 390.792C640.056 391.304 640.158 391.757 640.36 392.152C640.574 392.536 640.867 392.84 641.24 393.064C641.614 393.288 642.04 393.4 642.52 393.4ZM644.808 394.6V392.552L645.08 390.696L644.808 388.856V387H646.264V394.6H644.808ZM648.361 394.6V383.176H649.801V394.6H648.361ZM654.964 394.76C654.345 394.76 653.785 394.621 653.284 394.344C652.793 394.056 652.409 393.661 652.132 393.16C651.854 392.659 651.716 392.077 651.716 391.416V387H653.156V391.352C653.156 391.768 653.225 392.131 653.364 392.44C653.513 392.739 653.726 392.968 654.004 393.128C654.281 393.288 654.606 393.368 654.98 393.368C655.545 393.368 655.988 393.192 656.308 392.84C656.628 392.477 656.788 391.981 656.788 391.352V387H658.228V391.416C658.228 392.077 658.089 392.659 657.812 393.16C657.534 393.661 657.15 394.056 656.66 394.344C656.18 394.621 655.614 394.76 654.964 394.76ZM663.678 394.76C662.92 394.76 662.238 394.589 661.63 394.248C661.022 393.896 660.542 393.421 660.19 392.824C659.838 392.227 659.662 391.549 659.662 390.792C659.662 390.045 659.832 389.373 660.174 388.776C660.526 388.179 660.995 387.709 661.582 387.368C662.179 387.016 662.846 386.84 663.582 386.84C664.286 386.84 664.904 387 665.438 387.32C665.982 387.64 666.403 388.083 666.702 388.648C667.011 389.213 667.166 389.853 667.166 390.568C667.166 390.675 667.16 390.792 667.15 390.92C667.139 391.037 667.118 391.176 667.086 391.336H660.67V390.136H666.318L665.79 390.6C665.79 390.088 665.699 389.656 665.518 389.304C665.336 388.941 665.08 388.664 664.75 388.472C664.419 388.269 664.019 388.168 663.55 388.168C663.059 388.168 662.627 388.275 662.254 388.488C661.88 388.701 661.592 389 661.39 389.384C661.187 389.768 661.086 390.221 661.086 390.744C661.086 391.277 661.192 391.747 661.406 392.152C661.619 392.547 661.923 392.856 662.318 393.08C662.712 393.293 663.166 393.4 663.678 393.4C664.104 393.4 664.494 393.325 664.846 393.176C665.208 393.027 665.518 392.803 665.774 392.504L666.702 393.448C666.339 393.875 665.891 394.2 665.358 394.424C664.835 394.648 664.275 394.76 663.678 394.76ZM673.232 394.6V383.816H674.672V394.6H673.232ZM671.36 388.312V387H676.544V388.312H671.36ZM677.954 394.6V387H679.394V394.6H677.954ZM679.394 390.264L678.85 390.024C678.85 389.053 679.074 388.28 679.522 387.704C679.97 387.128 680.616 386.84 681.458 386.84C681.842 386.84 682.189 386.909 682.498 387.048C682.808 387.176 683.096 387.395 683.362 387.704L682.418 388.68C682.258 388.509 682.082 388.387 681.89 388.312C681.698 388.237 681.474 388.2 681.218 388.2C680.685 388.2 680.248 388.371 679.906 388.712C679.565 389.053 679.394 389.571 679.394 390.264ZM687.358 394.76C686.665 394.76 686.036 394.589 685.47 394.248C684.905 393.896 684.457 393.421 684.126 392.824C683.806 392.227 683.646 391.555 683.646 390.808C683.646 390.061 683.806 389.389 684.126 388.792C684.457 388.195 684.9 387.72 685.454 387.368C686.02 387.016 686.654 386.84 687.358 386.84C687.934 386.84 688.446 386.963 688.894 387.208C689.353 387.443 689.721 387.773 689.998 388.2C690.276 388.616 690.43 389.101 690.462 389.656V391.944C690.43 392.488 690.276 392.973 689.998 393.4C689.732 393.827 689.369 394.163 688.91 394.408C688.462 394.643 687.945 394.76 687.358 394.76ZM687.598 393.4C688.313 393.4 688.889 393.16 689.326 392.68C689.764 392.189 689.982 391.565 689.982 390.808C689.982 390.285 689.881 389.832 689.678 389.448C689.486 389.053 689.209 388.749 688.846 388.536C688.484 388.312 688.062 388.2 687.582 388.2C687.102 388.2 686.676 388.312 686.302 388.536C685.94 388.76 685.652 389.069 685.438 389.464C685.236 389.848 685.134 390.291 685.134 390.792C685.134 391.304 685.236 391.757 685.438 392.152C685.652 392.536 685.945 392.84 686.318 393.064C686.692 393.288 687.118 393.4 687.598 393.4ZM689.886 394.6V392.552L690.158 390.696L689.886 388.856V387H691.342V394.6H689.886ZM698.815 394.6V390.168C698.815 389.592 698.633 389.117 698.271 388.744C697.908 388.371 697.439 388.184 696.863 388.184C696.479 388.184 696.137 388.269 695.839 388.44C695.54 388.611 695.305 388.845 695.135 389.144C694.964 389.443 694.879 389.784 694.879 390.168L694.287 389.832C694.287 389.256 694.415 388.744 694.671 388.296C694.927 387.848 695.284 387.496 695.743 387.24C696.201 386.973 696.719 386.84 697.295 386.84C697.871 386.84 698.377 386.984 698.815 387.272C699.263 387.56 699.615 387.939 699.871 388.408C700.127 388.867 700.255 389.357 700.255 389.88V394.6H698.815ZM693.439 394.6V387H694.879V394.6H693.439ZM704.62 394.76C704.194 394.76 703.788 394.707 703.404 394.6C703.031 394.483 702.684 394.323 702.364 394.12C702.044 393.907 701.767 393.656 701.532 393.368L702.46 392.44C702.738 392.781 703.058 393.037 703.42 393.208C703.783 393.368 704.188 393.448 704.636 393.448C705.084 393.448 705.431 393.373 705.676 393.224C705.922 393.064 706.044 392.845 706.044 392.568C706.044 392.291 705.943 392.077 705.74 391.928C705.548 391.768 705.298 391.64 704.988 391.544C704.679 391.437 704.348 391.336 703.996 391.24C703.655 391.133 703.33 391 703.02 390.84C702.711 390.68 702.455 390.461 702.252 390.184C702.06 389.907 701.964 389.539 701.964 389.08C701.964 388.621 702.076 388.227 702.3 387.896C702.524 387.555 702.834 387.293 703.228 387.112C703.634 386.931 704.119 386.84 704.684 386.84C705.282 386.84 705.81 386.947 706.268 387.16C706.738 387.363 707.122 387.672 707.42 388.088L706.492 389.016C706.279 388.739 706.012 388.525 705.692 388.376C705.383 388.227 705.031 388.152 704.636 388.152C704.22 388.152 703.9 388.227 703.676 388.376C703.463 388.515 703.356 388.712 703.356 388.968C703.356 389.224 703.452 389.421 703.644 389.56C703.836 389.699 704.087 389.816 704.396 389.912C704.716 390.008 705.047 390.109 705.388 390.216C705.73 390.312 706.055 390.445 706.364 390.616C706.674 390.787 706.924 391.016 707.116 391.304C707.319 391.592 707.42 391.971 707.42 392.44C707.42 393.155 707.164 393.72 706.652 394.136C706.151 394.552 705.474 394.76 704.62 394.76ZM712.265 394.76C711.571 394.76 710.942 394.589 710.377 394.248C709.811 393.896 709.363 393.421 709.033 392.824C708.713 392.227 708.553 391.555 708.553 390.808C708.553 390.061 708.713 389.389 709.033 388.792C709.363 388.195 709.806 387.72 710.361 387.368C710.926 387.016 711.561 386.84 712.265 386.84C712.841 386.84 713.353 386.963 713.801 387.208C714.259 387.443 714.627 387.773 714.905 388.2C715.182 388.616 715.337 389.101 715.369 389.656V391.944C715.337 392.488 715.182 392.973 714.905 393.4C714.638 393.827 714.275 394.163 713.817 394.408C713.369 394.643 712.851 394.76 712.265 394.76ZM712.505 393.4C713.219 393.4 713.795 393.16 714.233 392.68C714.67 392.189 714.889 391.565 714.889 390.808C714.889 390.285 714.787 389.832 714.585 389.448C714.393 389.053 714.115 388.749 713.753 388.536C713.39 388.312 712.969 388.2 712.489 388.2C712.009 388.2 711.582 388.312 711.209 388.536C710.846 388.76 710.558 389.069 710.345 389.464C710.142 389.848 710.041 390.291 710.041 390.792C710.041 391.304 710.142 391.757 710.345 392.152C710.558 392.536 710.851 392.84 711.225 393.064C711.598 393.288 712.025 393.4 712.505 393.4ZM714.793 394.6V392.552L715.065 390.696L714.793 388.856V387H716.249V394.6H714.793ZM721.817 394.76C721.07 394.76 720.393 394.584 719.785 394.232C719.188 393.88 718.713 393.405 718.361 392.808C718.02 392.2 717.849 391.528 717.849 390.792C717.849 390.045 718.02 389.373 718.361 388.776C718.713 388.179 719.188 387.709 719.785 387.368C720.393 387.016 721.07 386.84 721.817 386.84C722.404 386.84 722.948 386.952 723.449 387.176C723.95 387.389 724.382 387.704 724.745 388.12L723.785 389.08C723.55 388.803 723.262 388.595 722.921 388.456C722.59 388.307 722.222 388.232 721.817 388.232C721.337 388.232 720.91 388.344 720.537 388.568C720.164 388.781 719.87 389.08 719.657 389.464C719.444 389.848 719.337 390.291 719.337 390.792C719.337 391.293 719.444 391.736 719.657 392.12C719.87 392.504 720.164 392.808 720.537 393.032C720.91 393.256 721.337 393.368 721.817 393.368C722.222 393.368 722.59 393.299 722.921 393.16C723.262 393.011 723.556 392.797 723.801 392.52L724.745 393.48C724.393 393.885 723.961 394.2 723.449 394.424C722.948 394.648 722.404 394.76 721.817 394.76ZM727.247 394.6V383.816H728.687V394.6H727.247ZM725.375 388.312V387H730.559V388.312H725.375ZM735.256 394.76C734.498 394.76 733.816 394.589 733.208 394.248C732.6 393.896 732.12 393.421 731.768 392.824C731.416 392.227 731.24 391.549 731.24 390.792C731.24 390.045 731.41 389.373 731.752 388.776C732.104 388.179 732.573 387.709 733.16 387.368C733.757 387.016 734.424 386.84 735.16 386.84C735.864 386.84 736.482 387 737.016 387.32C737.56 387.64 737.981 388.083 738.28 388.648C738.589 389.213 738.744 389.853 738.744 390.568C738.744 390.675 738.738 390.792 738.728 390.92C738.717 391.037 738.696 391.176 738.664 391.336H732.248V390.136H737.896L737.368 390.6C737.368 390.088 737.277 389.656 737.096 389.304C736.914 388.941 736.658 388.664 736.328 388.472C735.997 388.269 735.597 388.168 735.128 388.168C734.637 388.168 734.205 388.275 733.832 388.488C733.458 388.701 733.17 389 732.968 389.384C732.765 389.768 732.664 390.221 732.664 390.744C732.664 391.277 732.77 391.747 732.984 392.152C733.197 392.547 733.501 392.856 733.896 393.08C734.29 393.293 734.744 393.4 735.256 393.4C735.682 393.4 736.072 393.325 736.424 393.176C736.786 393.027 737.096 392.803 737.352 392.504L738.28 393.448C737.917 393.875 737.469 394.2 736.936 394.424C736.413 394.648 735.853 394.76 735.256 394.76ZM743.53 394.76C742.826 394.76 742.196 394.589 741.642 394.248C741.087 393.896 740.644 393.421 740.314 392.824C739.994 392.227 739.834 391.555 739.834 390.808C739.834 390.061 739.994 389.389 740.314 388.792C740.644 388.195 741.087 387.72 741.642 387.368C742.196 387.016 742.826 386.84 743.53 386.84C744.095 386.84 744.607 386.963 745.066 387.208C745.524 387.443 745.892 387.773 746.17 388.2C746.458 388.616 746.618 389.101 746.65 389.656V391.944C746.618 392.488 746.463 392.973 746.186 393.4C745.908 393.827 745.54 394.163 745.082 394.408C744.623 394.643 744.106 394.76 743.53 394.76ZM743.77 393.4C744.25 393.4 744.666 393.288 745.018 393.064C745.38 392.84 745.663 392.536 745.866 392.152C746.068 391.757 746.17 391.309 746.17 390.808C746.17 390.285 746.063 389.832 745.85 389.448C745.647 389.064 745.364 388.76 745.002 388.536C744.65 388.312 744.234 388.2 743.754 388.2C743.274 388.2 742.852 388.312 742.49 388.536C742.127 388.76 741.839 389.069 741.626 389.464C741.423 389.848 741.322 390.291 741.322 390.792C741.322 391.304 741.423 391.757 741.626 392.152C741.839 392.536 742.127 392.84 742.49 393.064C742.863 393.288 743.29 393.4 743.77 393.4ZM747.53 394.6H746.074V392.552L746.346 390.696L746.074 388.856V383.176H747.53V394.6ZM753.626 394.76C753.05 394.76 752.528 394.643 752.058 394.408C751.6 394.163 751.232 393.827 750.954 393.4C750.677 392.973 750.522 392.488 750.49 391.944V389.656C750.522 389.101 750.677 388.616 750.954 388.2C751.242 387.773 751.616 387.443 752.074 387.208C752.544 386.963 753.061 386.84 753.626 386.84C754.32 386.84 754.944 387.016 755.498 387.368C756.064 387.72 756.506 388.195 756.826 388.792C757.146 389.389 757.306 390.061 757.306 390.808C757.306 391.555 757.146 392.227 756.826 392.824C756.506 393.421 756.064 393.896 755.498 394.248C754.944 394.589 754.32 394.76 753.626 394.76ZM749.626 397.784V387H751.066V389L750.794 390.84L751.066 392.696V397.784H749.626ZM753.386 393.4C753.866 393.4 754.288 393.288 754.65 393.064C755.013 392.84 755.301 392.536 755.514 392.152C755.728 391.757 755.834 391.304 755.834 390.792C755.834 390.291 755.728 389.843 755.514 389.448C755.301 389.053 755.013 388.749 754.65 388.536C754.288 388.312 753.872 388.2 753.402 388.2C752.922 388.2 752.501 388.312 752.138 388.536C751.776 388.749 751.493 389.053 751.29 389.448C751.088 389.843 750.986 390.296 750.986 390.808C750.986 391.309 751.082 391.757 751.274 392.152C751.477 392.536 751.76 392.84 752.122 393.064C752.496 393.288 752.917 393.4 753.386 393.4ZM762.459 394.76C761.701 394.76 761.019 394.589 760.411 394.248C759.803 393.896 759.323 393.421 758.971 392.824C758.619 392.227 758.443 391.549 758.443 390.792C758.443 390.045 758.613 389.373 758.955 388.776C759.307 388.179 759.776 387.709 760.363 387.368C760.96 387.016 761.627 386.84 762.363 386.84C763.067 386.84 763.685 387 764.219 387.32C764.763 387.64 765.184 388.083 765.483 388.648C765.792 389.213 765.947 389.853 765.947 390.568C765.947 390.675 765.941 390.792 765.931 390.92C765.92 391.037 765.899 391.176 765.867 391.336H759.451V390.136H765.099L764.571 390.6C764.571 390.088 764.48 389.656 764.299 389.304C764.117 388.941 763.861 388.664 763.531 388.472C763.2 388.269 762.8 388.168 762.331 388.168C761.84 388.168 761.408 388.275 761.035 388.488C760.661 388.701 760.373 389 760.171 389.384C759.968 389.768 759.867 390.221 759.867 390.744C759.867 391.277 759.973 391.747 760.187 392.152C760.4 392.547 760.704 392.856 761.099 393.08C761.493 393.293 761.947 393.4 762.459 393.4C762.885 393.4 763.275 393.325 763.627 393.176C763.989 393.027 764.299 392.803 764.555 392.504L765.483 393.448C765.12 393.875 764.672 394.2 764.139 394.424C763.616 394.648 763.056 394.76 762.459 394.76ZM767.517 394.6V387H768.957V394.6H767.517ZM768.957 390.264L768.413 390.024C768.413 389.053 768.637 388.28 769.085 387.704C769.533 387.128 770.178 386.84 771.021 386.84C771.405 386.84 771.752 386.909 772.061 387.048C772.37 387.176 772.658 387.395 772.925 387.704L771.981 388.68C771.821 388.509 771.645 388.387 771.453 388.312C771.261 388.237 771.037 388.2 770.781 388.2C770.248 388.2 769.81 388.371 769.469 388.712C769.128 389.053 768.957 389.571 768.957 390.264ZM780.044 394.664L776.748 387H778.348L780.796 393H780.284L782.86 387H784.46L780.908 394.664H780.044ZM777.868 397.784L780.108 393.192L780.908 394.664L779.468 397.784H777.868ZM788.865 394.76C788.108 394.76 787.425 394.589 786.817 394.248C786.209 393.896 785.729 393.421 785.377 392.824C785.025 392.227 784.849 391.549 784.849 390.792C784.849 390.045 785.02 389.373 785.361 388.776C785.713 388.179 786.182 387.709 786.769 387.368C787.366 387.016 788.033 386.84 788.769 386.84C789.473 386.84 790.092 387 790.625 387.32C791.169 387.64 791.59 388.083 791.889 388.648C792.198 389.213 792.353 389.853 792.353 390.568C792.353 390.675 792.348 390.792 792.337 390.92C792.326 391.037 792.305 391.176 792.273 391.336H785.857V390.136H791.505L790.977 390.6C790.977 390.088 790.886 389.656 790.705 389.304C790.524 388.941 790.268 388.664 789.937 388.472C789.606 388.269 789.206 388.168 788.737 388.168C788.246 388.168 787.814 388.275 787.441 388.488C787.068 388.701 786.78 389 786.577 389.384C786.374 389.768 786.273 390.221 786.273 390.744C786.273 391.277 786.38 391.747 786.593 392.152C786.806 392.547 787.11 392.856 787.505 393.08C787.9 393.293 788.353 393.4 788.865 393.4C789.292 393.4 789.681 393.325 790.033 393.176C790.396 393.027 790.705 392.803 790.961 392.504L791.889 393.448C791.526 393.875 791.078 394.2 790.545 394.424C790.022 394.648 789.462 394.76 788.865 394.76ZM797.155 394.76C796.462 394.76 795.833 394.589 795.267 394.248C794.702 393.896 794.254 393.421 793.923 392.824C793.603 392.227 793.443 391.555 793.443 390.808C793.443 390.061 793.603 389.389 793.923 388.792C794.254 388.195 794.697 387.72 795.251 387.368C795.817 387.016 796.451 386.84 797.155 386.84C797.731 386.84 798.243 386.963 798.691 387.208C799.15 387.443 799.518 387.773 799.795 388.2C800.073 388.616 800.227 389.101 800.259 389.656V391.944C800.227 392.488 800.073 392.973 799.795 393.4C799.529 393.827 799.166 394.163 798.707 394.408C798.259 394.643 797.742 394.76 797.155 394.76ZM797.395 393.4C798.11 393.4 798.686 393.16 799.123 392.68C799.561 392.189 799.779 391.565 799.779 390.808C799.779 390.285 799.678 389.832 799.475 389.448C799.283 389.053 799.006 388.749 798.643 388.536C798.281 388.312 797.859 388.2 797.379 388.2C796.899 388.2 796.473 388.312 796.099 388.536C795.737 388.76 795.449 389.069 795.235 389.464C795.033 389.848 794.931 390.291 794.931 390.792C794.931 391.304 795.033 391.757 795.235 392.152C795.449 392.536 795.742 392.84 796.115 393.064C796.489 393.288 796.915 393.4 797.395 393.4ZM799.683 394.6V392.552L799.955 390.696L799.683 388.856V387H801.139V394.6H799.683ZM803.236 394.6V387H804.676V394.6H803.236ZM804.676 390.264L804.132 390.024C804.132 389.053 804.356 388.28 804.804 387.704C805.252 387.128 805.897 386.84 806.74 386.84C807.124 386.84 807.47 386.909 807.78 387.048C808.089 387.176 808.377 387.395 808.644 387.704L807.7 388.68C807.54 388.509 807.364 388.387 807.172 388.312C806.98 388.237 806.756 388.2 806.5 388.2C805.966 388.2 805.529 388.371 805.188 388.712C804.846 389.053 804.676 389.571 804.676 390.264Z" fill="white" fill-opacity="0.87"/>
<defs>
<linearGradient id="paint0_linear_1_100" x1="-43.1213" y1="17.8536" x2="1563.77" y2="843.727" gradientUnits="userSpaceOnUse">
<stop stop-color="#E46703"/>
<stop offset="1" stop-color="#C7340D"/>
</linearGradient>
</defs>
</svg>
